<svg xmlns="http://www.w3.org/2000/svg" width="573.242" height="463.515" viewBox="0 0 573.242 463.515">
  <g id="Group_Chat-amico" data-name="Group Chat-amico" transform="translate(-14.218 -32.48)">
    <g id="freepik--Shadow--inject-7" transform="translate(31.798 225.066)">
      <path id="Path_1" data-name="Path 1" d="M31.105,312.717l340.917,169.4a16.77,16.77,0,0,0,13.246,0L570.856,389.9c3.653-1.818,3.653-4.759,0-6.577l-340.917-169.4a16.77,16.77,0,0,0-13.246,0L31.105,306.139C27.452,307.957,27.452,310.9,31.105,312.717Z" transform="translate(-28.365 -212.555)" fill="#e0e0e0"/>
    </g>
    <g id="freepik--Plants--inject-7" transform="translate(14.218 222.73)">
      <g id="freepik--plants--inject-7-2" data-name="freepik--plants--inject-7" transform="translate(516.321 76.962)">
        <path id="Path_2" data-name="Path 2" d="M440.965,359.642l-9.332-5.422s-4.1-21.026-.286-39.506c5.368-25.978,26.182-34.619,33.551-31.9s9.022,10.459-4.834,25.293C451.938,316.852,441.251,335.451,440.965,359.642Z" transform="translate(-429.723 -282.334)" fill="#407bff"/>
        <g id="Group_1" data-name="Group 1" opacity="0.15">
          <path id="Path_3" data-name="Path 3" d="M440.965,359.642l-9.332-5.422s-4.1-21.026-.286-39.506c5.368-25.978,26.182-34.619,33.551-31.9s9.022,10.459-4.834,25.293C451.938,316.852,441.251,335.451,440.965,359.642Z" transform="translate(-429.723 -282.334)"/>
        </g>
        <path id="Path_4" data-name="Path 4" d="M436.437,349h.1a.7.7,0,0,0,.451-.221.52.52,0,0,0,.133-.431c-3.368-24.459,8.636-50.993,21.684-61.548a.523.523,0,0,0,0-.823.765.765,0,0,0-.957,0c-13.284,10.748-25.511,37.72-22.094,62.532A.663.663,0,0,0,436.437,349Z" transform="translate(-428.4 -282.092)" fill="#fff"/>
        <path id="Path_5" data-name="Path 5" d="M464.411,372.515a14.836,14.836,0,0,0,8.176-5.989,19.466,19.466,0,0,0,2.883-9.732c.186-3.144-.783-6.417-.249-9.486.423-2.438,2.97-4.107,5.294-5.551,2.572-1.583,5.269-3.7,5.318-6.641a9.617,9.617,0,0,0-2.883-6.214c-2.485-2.877-5.12-5.144-4.411-9.069a29.529,29.529,0,0,1,2.808-6.845,9.742,9.742,0,0,0,.994-2.973,5.907,5.907,0,0,0-2.055-5.039,8.136,8.136,0,0,0-5.774-1.956,15.158,15.158,0,0,0-5.505,1.561c-5.294,2.417-8.512,8.727-14.638,9.379-2,.214-4.026.139-6.027.364a9.549,9.549,0,0,0-5.418,2.064c-4.672,4.278.746,9.957-1.243,14.695-1.392,3.4-5.281,4.642-7.456,7.679a6.474,6.474,0,0,0-1.118,4.449,18.943,18.943,0,0,0,2.025,7.593,39.281,39.281,0,0,0,3.629,5.444c1.429,2.043,1.889,4.278,3.728,6.171a65.934,65.934,0,0,0,7.829,6.235c2.647,2.011,5.666,3.925,9.27,4.278a12.615,12.615,0,0,0,4.821-.417Z" transform="translate(-428.912 -280.897)" fill="#407bff"/>
        <g id="Group_2" data-name="Group 2" transform="translate(4.151 22.114)" opacity="0.2">
          <path id="Path_6" data-name="Path 6" d="M464.411,372.515a14.836,14.836,0,0,0,8.176-5.989,19.466,19.466,0,0,0,2.883-9.732c.186-3.144-.783-6.417-.249-9.486.423-2.438,2.97-4.107,5.294-5.551,2.572-1.583,5.269-3.7,5.318-6.641a9.617,9.617,0,0,0-2.883-6.214c-2.485-2.877-5.12-5.144-4.411-9.069a29.529,29.529,0,0,1,2.808-6.845,9.742,9.742,0,0,0,.994-2.973,5.907,5.907,0,0,0-2.055-5.039,8.136,8.136,0,0,0-5.774-1.956,15.158,15.158,0,0,0-5.505,1.561c-5.294,2.417-8.512,8.727-14.638,9.379-2,.214-4.026.139-6.027.364a9.549,9.549,0,0,0-5.418,2.064c-4.672,4.278.746,9.957-1.243,14.695-1.392,3.4-5.281,4.642-7.456,7.679a6.474,6.474,0,0,0-1.118,4.449,18.943,18.943,0,0,0,2.025,7.593,39.281,39.281,0,0,0,3.629,5.444c1.429,2.043,1.889,4.278,3.728,6.171a65.934,65.934,0,0,0,7.829,6.235c2.647,2.011,5.666,3.925,9.27,4.278a12.615,12.615,0,0,0,4.821-.417Z" transform="translate(-433.063 -303.011)" fill="#fff"/>
        </g>
        <path id="Path_7" data-name="Path 7" d="M447.028,364.525h0a.637.637,0,0,0,.671-.6c-.6-23.1,12.613-48.383,21.97-55.613a.528.528,0,0,0-.013-.775.765.765,0,0,0-.894-.091c-9.543,7.4-23.026,33.1-22.367,56.522a.651.651,0,0,0,.634.556Z" transform="translate(-425.683 -280.596)" fill="#fff"/>
        <path id="Path_8" data-name="Path 8" d="M451.009,334.721h.2a103.682,103.682,0,0,1,19.522-2.385.583.583,0,1,0,0-1.166,107.234,107.234,0,0,0-19.882,2.428.666.666,0,0,0-.411.273.507.507,0,0,0-.062.443A.692.692,0,0,0,451.009,334.721Z" transform="translate(-424.718 -278.941)" fill="#fff"/>
      </g>
      <g id="freepik--plants--inject-7-3" data-name="freepik--plants--inject-7">
        <path id="Path_9" data-name="Path 9" d="M48.326,290.752l10.8-4.182s4.7-18.6,4.747-33.3c.075-20.673-12.426-46.629-31.4-42.447s5.281,27.368,9.183,45.239S48.326,290.752,48.326,290.752Z" transform="translate(-11.528 -210.371)" fill="#407bff"/>
        <g id="Group_3" data-name="Group 3" transform="translate(13.773)" opacity="0.15">
          <path id="Path_10" data-name="Path 10" d="M48.326,290.752l10.8-4.182s4.7-18.6,4.747-33.3c.075-20.673-12.426-46.629-31.4-42.447s5.281,27.368,9.183,45.239S48.326,290.752,48.326,290.752Z" transform="translate(-25.301 -210.371)"/>
        </g>
        <path id="Path_11" data-name="Path 11" d="M51.747,288.691h0a.565.565,0,0,1-.534-.61c7.133-45.314-16.49-70.478-16.726-70.724a.5.5,0,0,1,.087-.759.693.693,0,0,1,.87.075c.249.246,24.207,25.774,17,71.558A.611.611,0,0,1,51.747,288.691Z" transform="translate(-9.333 -209.947)" fill="#fff"/>
        <path id="Path_12" data-name="Path 12" d="M44.218,291.733l7.692-2.973s2.746-12.834-2.759-29.122c-4.8-14.2-19.348-26.908-27.624-25.218s-8.7,6.577-5.343,12.032S41.745,266.066,44.218,291.733Z" transform="translate(-14.218 -208.711)" fill="#407bff"/>
        <g id="Group_4" data-name="Group 4" transform="translate(0 25.557)" opacity="0.2">
          <path id="Path_13" data-name="Path 13" d="M44.218,291.733l7.692-2.973s2.746-12.834-2.759-29.122c-4.8-14.2-19.348-26.908-27.624-25.218s-8.7,6.577-5.343,12.032S41.745,266.066,44.218,291.733Z" transform="translate(-14.218 -234.268)" fill="#fff"/>
        </g>
        <path id="Path_14" data-name="Path 14" d="M46.777,290.419h0a.56.56,0,0,1-.547-.588c3.517-28.737-25.573-50.907-25.859-51.121a.494.494,0,0,1-.062-.759.68.68,0,0,1,.87,0c.3.214,29.823,22.748,26.282,52.041a.6.6,0,0,1-.683.428Z" transform="translate(-12.776 -208.466)" fill="#fff"/>
      </g>
    </g>
    <g id="freepik--Device--inject-7" transform="translate(37.023 209.4)">
      <g id="freepik--Mobile--inject-7">
        <g id="freepik--mobile--inject-7-2" data-name="freepik--mobile--inject-7">
          <path id="Path_15" data-name="Path 15" d="M548.661,387.474,386.112,468.23a20.055,20.055,0,0,1-16.962.278L41.9,305.884c-5.157-2.556-9.332-8.288-9.332-12.834s4.175-10.235,9.332-12.834l161.94-80.392a23.706,23.706,0,0,1,18.639,0L548.661,361.881c5.157,2.567,9.332,8.288,9.332,12.834S553.768,384.918,548.661,387.474Z" transform="translate(-32.57 -197.907)" fill="#407bff"/>
          <g id="Group_5" data-name="Group 5" opacity="0.5">
            <path id="Path_16" data-name="Path 16" d="M203.842,199.825,41.9,280.292c-5.157,2.556-9.332,8.288-9.332,12.834s4.175,10.246,9.332,12.834L369.15,468.508a20.7,20.7,0,0,0,8.114,1.722V276.72l-154.745-76.9a23.7,23.7,0,0,0-18.677,0Z" transform="translate(-32.57 -197.908)"/>
          </g>
          <g id="Group_6" data-name="Group 6" transform="translate(344.744 78.812)" opacity="0.4">
            <path id="Path_17" data-name="Path 17" d="M318.8,463.111l162.549-80.756c5.157-2.556,9.332-8.288,9.332-12.834s-4.175-10.235-9.332-12.834L310,271.6V465.111a19.481,19.481,0,0,0,8.8-2Z" transform="translate(-310 -271.6)"/>
          </g>
          <path id="Path_18" data-name="Path 18" d="M381.49,453.835a20.87,20.87,0,0,1-16.465,0L41.071,292.89c-6.971-3.465-6.971-9.123,0-12.588l161.965-80.478a23.706,23.706,0,0,1,18.64,0L547.854,361.881c5.132,2.556,5.132,6.727,0,9.272Z" transform="translate(-31.776 -197.907)" fill="#407bff"/>
          <g id="Group_7" data-name="Group 7" transform="translate(4.067 0.008)" opacity="0.3">
            <path id="Path_19" data-name="Path 19" d="M381.49,453.835a20.87,20.87,0,0,1-16.465,0L41.071,292.89c-6.971-3.465-6.971-9.123,0-12.588l161.965-80.478a23.706,23.706,0,0,1,18.64,0L547.854,361.881c5.132,2.556,5.132,6.727,0,9.272Z" transform="translate(-35.842 -197.915)"/>
          </g>
          <path id="Path_20" data-name="Path 20" d="M359.915,436.665a22.435,22.435,0,0,1-17.745,0L63.447,298.168c-4.9-2.438-4.9-6.417,0-8.812l152.372-75.708a22.625,22.625,0,0,1,17.745,0L512.286,352.112c4.871,2.428,4.871,6.417,0,8.823Z" transform="translate(-25.969 -196.94)" fill="#37474f"/>
          <path id="Path_21" data-name="Path 21" d="M224.144,211.86a20.178,20.178,0,0,0-8.326,1.786L63.447,289.354c-4.9,2.428-4.9,6.417,0,8.812l30.208,14.973L224.132,241.42Z" transform="translate(-25.969 -196.938)" fill="#263238"/>
          <path id="Path_22" data-name="Path 22" d="M233.366,219.008a22.523,22.523,0,0,0-17.745,0L63.262,294.716A8.883,8.883,0,0,0,61,296.31a9.191,9.191,0,0,0,2.212,1.487l278.623,138.5a22.435,22.435,0,0,0,17.745,0l152.372-75.7a9.232,9.232,0,0,0,2.3-1.583,9.132,9.132,0,0,0-2.2-1.508Z" transform="translate(-25.672 -196.568)" fill="#455a64"/>
          <path id="Path_23" data-name="Path 23" d="M108.866,252.3l27-13.422c1.615-.8,1.69-2.053.186-2.8a7.116,7.116,0,0,0-5.654.086l-27,13.422c-1.615.8-1.7,2.053-.186,2.8a7.116,7.116,0,0,0,5.654-.086Z" transform="translate(-15.693 -195.294)" fill="#37474f"/>
          <path id="Path_24" data-name="Path 24" d="M146.16,229.914a1.389,1.389,0,0,0,0-2.727,6.962,6.962,0,0,0-5.48,0,1.389,1.389,0,0,0,0,2.727,6.962,6.962,0,0,0,5.48,0Z" transform="translate(-6.612 -195.912)" fill="#37474f"/>
          <path id="Path_25" data-name="Path 25" d="M154.971,224.813a1.38,1.38,0,0,0,0-2.716,6.962,6.962,0,0,0-5.48,0,1.38,1.38,0,0,0,0,2.716,6.874,6.874,0,0,0,5.48,0Z" transform="translate(-4.476 -196.266)" fill="#37474f"/>
          <path id="Path_26" data-name="Path 26" d="M84.489,265.5a1.38,1.38,0,0,0,0-2.717,6.933,6.933,0,0,0-5.468,0,1.38,1.38,0,0,0,0,2.716,6.845,6.845,0,0,0,5.468,0Z" transform="translate(-21.574 -193.439)" fill="#37474f"/>
          <path id="Path_27" data-name="Path 27" d="M93.289,260.413a1.38,1.38,0,0,0,0-2.716,6.933,6.933,0,0,0-5.468,0,1.38,1.38,0,0,0,0,2.716,6.933,6.933,0,0,0,5.468,0Z" transform="translate(-19.439 -193.793)" fill="#37474f"/>
          <path id="Path_28" data-name="Path 28" d="M131.067,339.252a5.293,5.293,0,0,1,2.92,4.171,1.515,1.515,0,0,1-.808,1.465c-.348.16-1.678.845-2.038,1.016a2.415,2.415,0,0,1-2.112-.2l-37.95-18.908a5.352,5.352,0,0,1-2.908-4.171,1.519,1.519,0,0,1,.733-1.433c.36-.193,1.74-.877,2.1-1.069a2.472,2.472,0,0,1,2.112.214Z" transform="translate(-19.081 -189.427)" fill="#407bff"/>
          <g id="Group_8" data-name="Group 8" transform="translate(69.082 130.549)" opacity="0.4">
            <path id="Path_29" data-name="Path 29" d="M131.067,339.252a5.293,5.293,0,0,1,2.92,4.171,1.515,1.515,0,0,1-.808,1.465c-.348.16-1.678.845-2.038,1.016a2.415,2.415,0,0,1-2.112-.2l-37.95-18.908a5.352,5.352,0,0,1-2.908-4.171,1.519,1.519,0,0,1,.733-1.433c.36-.193,1.74-.877,2.1-1.069a2.472,2.472,0,0,1,2.112.214Z" transform="translate(-88.163 -319.976)"/>
          </g>
          <path id="Path_30" data-name="Path 30" d="M129.028,340.138l-37.95-18.855c-1.6-.8-2.908-.225-2.908,1.273a5.352,5.352,0,0,0,2.908,4.171l37.95,18.876c1.615.8,2.92.235,2.92-1.273a5.289,5.289,0,0,0-2.92-4.192Z" transform="translate(-19.08 -189.361)" fill="#407bff"/>
          <g id="Group_9" data-name="Group 9" transform="translate(69.09 131.56)" opacity="0.3">
            <path id="Path_31" data-name="Path 31" d="M129.028,340.138l-37.95-18.855c-1.6-.8-2.908-.225-2.908,1.273a5.352,5.352,0,0,0,2.908,4.171l37.95,18.876c1.615.8,2.92.235,2.92-1.273a5.289,5.289,0,0,0-2.92-4.192Z" transform="translate(-88.17 -320.922)"/>
          </g>
          <path id="Path_32" data-name="Path 32" d="M86.271,314.949a5.3,5.3,0,0,1,2.92,4.16,1.5,1.5,0,0,1-.808,1.465l-2.038,1.069a2.459,2.459,0,0,1-2.112-.2l-17.882-8.887a5.293,5.293,0,0,1-2.92-4.171,1.5,1.5,0,0,1,.733-1.433c.36-.193,1.74-.877,2.112-1.069a2.43,2.43,0,0,1,2.1.2Z" transform="translate(-25.084 -190.417)" fill="#407bff"/>
          <g id="Group_10" data-name="Group 10" transform="translate(38.338 115.314)" opacity="0.4">
            <path id="Path_33" data-name="Path 33" d="M86.271,314.949a5.3,5.3,0,0,1,2.92,4.16,1.5,1.5,0,0,1-.808,1.465l-2.038,1.069a2.459,2.459,0,0,1-2.112-.2l-17.882-8.887a5.293,5.293,0,0,1-2.92-4.171,1.5,1.5,0,0,1,.733-1.433c.36-.193,1.74-.877,2.112-1.069a2.43,2.43,0,0,1,2.1.2Z" transform="translate(-63.422 -305.731)"/>
          </g>
          <path id="Path_34" data-name="Path 34" d="M84.232,315.89,66.35,307.024c-1.615-.8-2.92-.235-2.92,1.273a5.293,5.293,0,0,0,2.92,4.171l17.882,8.887c1.615.8,2.92.235,2.92-1.273A5.289,5.289,0,0,0,84.232,315.89Z" transform="translate(-25.082 -190.352)" fill="#407bff"/>
          <g id="Group_11" data-name="Group 11" transform="translate(38.348 116.307)" opacity="0.3">
            <path id="Path_35" data-name="Path 35" d="M84.232,315.89,66.35,307.024c-1.615-.8-2.92-.235-2.92,1.273a5.293,5.293,0,0,0,2.92,4.171l17.882,8.887c1.615.8,2.92.235,2.92-1.273A5.289,5.289,0,0,0,84.232,315.89Z" transform="translate(-63.43 -306.66)"/>
          </g>
        </g>
      </g>
    </g>
    <g id="freepik--Window--inject-7" transform="translate(71.357 186.352)">
      <g id="freepik--window--inject-7-2" data-name="freepik--window--inject-7">
        <path id="Path_36" data-name="Path 36" d="M510.953,331.287l-155.4,77.323a8.84,8.84,0,0,1-7,0L63.679,267.055a6.509,6.509,0,0,1-3.479-5.219V259.7a6.586,6.586,0,0,1,3.479-5.251l155.528-77.259a8.84,8.84,0,0,1,7,0l284.824,141.5a6.523,6.523,0,0,1,3.492,5.219v2.139a6.574,6.574,0,0,1-3.566,5.24Z" transform="translate(-60.2 -176.348)" fill="#e0e0e0"/>
        <path id="Path_37" data-name="Path 37" d="M225.453,177.045c-2.672-1.326-5.455-.556-8.127.781L64.482,253.758c-2.61,1.358-2.61,3.5.012,4.855L346.709,398.843h0a10.951,10.951,0,0,0,9.63,0L509.183,322.91a2.6,2.6,0,0,0,0-4.813h0Z" transform="translate(-59.636 -176.356)" fill="#fafafa"/>
        <path id="Path_38" data-name="Path 38" d="M222.5,177.558a4.938,4.938,0,0,1,2.274.535L508.562,319.1a1.52,1.52,0,0,1,0,2.8L355.718,397.837a9.493,9.493,0,0,1-8.288,0L65.165,257.608c-.845-.417-1.33-.93-1.33-1.4s.485-.984,1.33-1.4l152.844-75.933a10.208,10.208,0,0,1,4.486-1.3m0-1.155a11.735,11.735,0,0,0-5.169,1.465L64.482,253.811c-2.61,1.3-2.61,3.444.012,4.8L346.709,398.843a10.981,10.981,0,0,0,9.63,0L509.183,322.91a2.6,2.6,0,0,0,0-4.813L225.453,177.044a6.6,6.6,0,0,0-2.957-.684Z" transform="translate(-59.636 -176.356)" fill="#e0e0e0"/>
        <path id="Path_39" data-name="Path 39" d="M454.057,309.478l-1.243-.588a2.611,2.611,0,0,1,0,4.823L299.971,389.646a10.69,10.69,0,0,1-4.809,1.07H295v9.4a8.3,8.3,0,0,0,3.579-.727l155.4-77.323a6.6,6.6,0,0,0,3.517-5.208v-2.139a6.483,6.483,0,0,0-3.442-5.24Z" transform="translate(-3.23 -167.148)" fill="#ebebeb"/>
        <path id="Path_40" data-name="Path 40" d="M95.75,276.816,310.626,383.549l162.6-80.7L258.262,196.06Z" transform="translate(-51.574 -174.987)" fill="#407bff"/>
        <path id="Path_41" data-name="Path 41" d="M98.285,244.834a1.171,1.171,0,0,1-.273-.086l-.982-.492-1.765.877a.353.353,0,0,1-.348,0l-.348-.171-.174-.1-.1-.118-1.615-2.727a.3.3,0,0,1,0-.107s0-.053.087-.086l.249-.118a.372.372,0,0,1,.236,0,.93.93,0,0,1,.286.1l3.417,1.69.385-.193a.43.43,0,0,1,.224,0,.929.929,0,0,1,.286.1l.236.118c.1.053.162.1.174.128s0,.075-.087.118l-.385.193.969.481a.187.187,0,0,1,.174.139c.012.043,0,.075-.087.118l-.3.139a.444.444,0,0,1-.261,0Zm-1.963-1.069-2.485-1.209,1.156,1.85Z" transform="translate(-52.32 -171.817)" fill="#455a64"/>
        <path id="Path_42" data-name="Path 42" d="M99.293,243.622a8.351,8.351,0,0,1-2.771-.866,3.575,3.575,0,0,1-1.74-1.38c-.174-.428,0-.8.671-1.069a3.958,3.958,0,0,1,1.74-.4.33.33,0,0,1,.162,0,.157.157,0,0,1,.087.064l.261.289v.075h-.149a3.082,3.082,0,0,0-1.243.289q-.634.3-.447.77a2.8,2.8,0,0,0,1.317,1.005,5.908,5.908,0,0,0,2.038.663,2.685,2.685,0,0,0,1.5-.2,1.836,1.836,0,0,0,.385-.246.6.6,0,0,0,.186-.246l-1.591-.791-.733.364a.343.343,0,0,1-.224,0,.93.93,0,0,1-.286-.1l-.224-.107a.205.205,0,0,1-.186-.139c-.012-.043,0-.064.1-.107l1.168-.588a.473.473,0,0,1,.273,0,.986.986,0,0,1,.323.107l2.262,1.123.186.107a.112.112,0,0,1,0,.1q0,.5-.895.93A4.02,4.02,0,0,1,99.293,243.622Z" transform="translate(-51.824 -171.941)" fill="#455a64"/>
        <path id="Path_43" data-name="Path 43" d="M110.614,236.322c.746.374.907.909.336,1.187a3.1,3.1,0,0,1-2.386-.171c-.758-.374-.907-.9-.348-1.187a3.126,3.126,0,0,1,2.4.171Z" transform="translate(-48.632 -172.213)" fill="#455a64"/>
        <path id="Path_44" data-name="Path 44" d="M106.526,235.129a1.39,1.39,0,0,0-.876.965,1.218,1.218,0,0,0,.4,1.174,1.135,1.135,0,0,0,.783.278h0c.385,0,.609-.171.422-.374a.857.857,0,0,1-.285-.829.979.979,0,0,1,.62-.679,4.918,4.918,0,0,1,3.02-.16c.41.086.77,0,.758-.214h0c0-.16-.249-.321-.559-.4a7.281,7.281,0,0,0-4.287.235Z" transform="translate(-49.179 -172.304)" fill="#455a64"/>
        <path id="Path_45" data-name="Path 45" d="M104.877,234.138a2.252,2.252,0,0,0-1.334,1.377,1.9,1.9,0,0,0,.352,1.767,1.08,1.08,0,0,0,.808.321h0c.385,0,.6-.16.447-.364a1.513,1.513,0,0,1-.319-1.448,1.8,1.8,0,0,1,1.115-1.119,8.93,8.93,0,0,1,5.182-.4c.4.064.733,0,.721-.225h0c0-.171-.286-.342-.634-.4a10.858,10.858,0,0,0-6.337.481Z" transform="translate(-49.704 -172.393)" fill="#455a64"/>
        <path id="Path_46" data-name="Path 46" d="M128.805,223.3a.593.593,0,0,1-.211-.064c-.062,0-.1-.075-.1-.118l-.075-1.5v-.107c0-.032,0-.064.075-.086l.534-.267a.5.5,0,0,1,.2,0,.665.665,0,0,1,.224.064l5.84,2.9a.229.229,0,0,1,.112.107.127.127,0,0,1-.062.107l-.547.267a.373.373,0,0,1-.2,0,.54.54,0,0,1-.224-.064l-4.461-2.214v.973a.1.1,0,0,1-.087.1.445.445,0,0,1-.211,0Z" transform="translate(-43.648 -173.244)" fill="#455a64"/>
        <path id="Path_47" data-name="Path 47" d="M131.566,221.71a.393.393,0,0,1-.211-.075.156.156,0,0,1-.1-.107l-.075-1.508a.35.35,0,0,1,0-.107.1.1,0,0,1,.075-.086l.522-.257a.416.416,0,0,1,.211,0,.54.54,0,0,1,.224.064l5.828,2.9a.136.136,0,0,1,.124.107c.012.043,0,.075-.062.107l-.547.267a.5.5,0,0,1-.2,0,.665.665,0,0,1-.224-.064l-4.461-2.214v.973a.1.1,0,0,1-.087.1.634.634,0,0,1-.211,0Z" transform="translate(-42.979 -173.355)" fill="#455a64"/>
        <path id="Path_48" data-name="Path 48" d="M135.046,219.361a.373.373,0,0,1,.2,0,.5.5,0,0,1,.224,0l.882.439a.2.2,0,0,1,.124.118.084.084,0,0,1-.062.1l-.621.31a.329.329,0,0,1-.211,0,.763.763,0,0,1-.224,0l-.882-.449a.281.281,0,0,1-.124-.107.094.094,0,0,1,.062-.1Zm3.156,1.572a.387.387,0,0,1,.2,0,.575.575,0,0,1,.236.053l.882.439a.213.213,0,0,1,.112.118.067.067,0,0,1,0,.1l-.634.31a.373.373,0,0,1-.2,0,.665.665,0,0,1-.224-.064l-.895-.438a.2.2,0,0,1-.112-.107v-.107Z" transform="translate(-42.209 -173.369)" fill="#455a64"/>
        <path id="Path_49" data-name="Path 49" d="M142.713,220.014a.373.373,0,0,1-.2,0,.489.489,0,0,1-.224-.053l-1.094-.545-2.112,1.069a.373.373,0,0,1-.2,0,.517.517,0,0,1-.224-.053l-.634-.321a.6.6,0,0,1-.186-.128l-.1-.15-1.367-2.749a.321.321,0,0,1,0-.246l.51-.257a.3.3,0,0,1,.2,0,.673.673,0,0,1,.224.053l3.616,1.8.584-.289a.388.388,0,0,1,.2,0,.489.489,0,0,1,.224.053l.646.321s.112.064.124.107,0,.075-.062.107l-.584.289,1.094.545s.112.064.124.107a.084.084,0,0,1-.062.1Zm-2.647-1.134-1.939-.963.77,1.54Z" transform="translate(-41.724 -173.563)" fill="#455a64"/>
        <path id="Path_50" data-name="Path 50" d="M138.795,215.8a.2.2,0,0,1-.124-.118.084.084,0,0,1,.062-.1l2.547-1.262a.373.373,0,0,1,.2,0,.484.484,0,0,1,.224.064l.646.31a.213.213,0,0,1,.112.118.067.067,0,0,1,0,.1l-1.914.952,1.094.61a.646.646,0,0,1,.236-.235,2.25,2.25,0,0,1,.286-.16,2.847,2.847,0,0,1,.833-.278,4.123,4.123,0,0,1,.969-.086,4.871,4.871,0,0,1,1.019.139,5.438,5.438,0,0,1,1.031.374,3.471,3.471,0,0,1,.857.567,1.019,1.019,0,0,1,.3.524.608.608,0,0,1-.186.471,1.9,1.9,0,0,1-.559.406,3.766,3.766,0,0,1-.957.332,4.026,4.026,0,0,1-.944.075,4.075,4.075,0,0,1-.895-.118,4.3,4.3,0,0,1-.808-.267.2.2,0,0,1-.124-.118.085.085,0,0,1,0-.1l.559-.278a.374.374,0,0,1,.174,0h.236a1.6,1.6,0,0,0,.46.107,1.745,1.745,0,0,0,.41,0,1.412,1.412,0,0,0,.373-.075c.112,0,.211-.086.323-.128s.373-.278.335-.449-.2-.342-.522-.5a2.157,2.157,0,0,0-.92-.214,1.938,1.938,0,0,0-.907.16,1.151,1.151,0,0,0-.273.182.428.428,0,0,0-.1.15v.107a.215.215,0,0,1-.124.1l-.621.31a.286.286,0,0,1-.2,0,.489.489,0,0,1-.224-.053Z" transform="translate(-41.161 -173.719)" fill="#455a64"/>
        <path id="Path_51" data-name="Path 51" d="M82.446,254.142l-1.876-.93,1.876-.941,1.889.941Z" transform="translate(-55.258 -171.082)" fill="#455a64"/>
        <path id="Path_52" data-name="Path 52" d="M85.1,252.893l-3.765-1.872,1.876-.941,3.765,1.872Z" transform="translate(-55.073 -171.234)" fill="#455a64"/>
        <path id="Path_53" data-name="Path 53" d="M87.732,251.643,82.09,248.83l1.876-.93,5.654,2.8Z" transform="translate(-54.889 -171.386)" fill="#455a64"/>
        <path id="Path_54" data-name="Path 54" d="M90.37,250.384l-7.53-3.743,1.889-.93,7.53,3.743Z" transform="translate(-54.707 -171.538)" fill="#455a64"/>
        <path id="Path_55" data-name="Path 55" d="M192.072,185.8a2.436,2.436,0,0,0-1.243.075l-7.046,3.486c-.46.235-.186.727.621,1.123l3.43,1.7a5.022,5.022,0,0,0,1.553.471,4.736,4.736,0,0,0,.646,0,1.709,1.709,0,0,0,.6-.118l7.046-3.486c.447-.235.174-.727-.634-1.069l-3.417-1.7a5.235,5.235,0,0,0-1.553-.481Zm-2.833,6.631a2.175,2.175,0,0,1-.671-.225l-3.43-1.7c-.6-.3-.82-.684-.485-.856l7.058-3.486a.632.632,0,0,1,.3-.064h.211a2.285,2.285,0,0,1,.671.225l3.417,1.7c.6.289.82.684.485.856l-7.046,3.486a.853.853,0,0,1-.509.064Z" transform="translate(-30.269 -175.703)" fill="#455a64"/>
        <path id="Path_56" data-name="Path 56" d="M186.191,189l4.051,2.011-1.118.545a.57.57,0,0,1-.423,0l-3.007-1.487c-.435-.214-.609-.5-.373-.631Z" transform="translate(-29.867 -175.478)" fill="#455a64"/>
        <path id="Path_57" data-name="Path 57" d="M186.42,188.833l1.317-.663,4.051,2.011-1.33.652Z" transform="translate(-29.575 -175.535)" fill="#455a64"/>
        <path id="Path_58" data-name="Path 58" d="M187.9,187.983l1.317-.663,4.051,2.021-1.317.652Z" transform="translate(-29.216 -175.594)" fill="#455a64"/>
        <path id="Path_59" data-name="Path 59" d="M190.956,186.6l2.92,1.5c.534.267.534.6,0,.866l-.435.225-4.051-2.011,1.044-.524a.826.826,0,0,1,.522-.053Z" transform="translate(-28.854 -175.646)" fill="#455a64"/>
        <path id="Path_60" data-name="Path 60" d="M191.958,186.132a2.914,2.914,0,0,1,1.615.449l.634.321c.708.342,1.131.717.944.823l-.323.193L191.61,186.3Z" transform="translate(-28.315 -175.679)" fill="#455a64"/>
        <path id="Path_61" data-name="Path 61" d="M176.32,195.81l5.008-4.31,4.536,4.353-4.7-1.348Z" transform="translate(-32.025 -175.304)" fill="#455a64"/>
        <path id="Path_62" data-name="Path 62" d="M310.62,372.227a9.737,9.737,0,0,1-4.188-.877l-4.287-2.139a2.547,2.547,0,0,1,0-4.962l95.82-47.752a10.531,10.531,0,0,1,8.4,0l4.275,2.139a2.547,2.547,0,0,1,0,4.962l-95.77,47.752a9.856,9.856,0,0,1-4.25.877Zm91.545-55.217a7.892,7.892,0,0,0-3.4.684l-95.82,47.752a1.759,1.759,0,0,0-1.18,1.294c0,.449.435.92,1.18,1.294l4.287,2.139a8.715,8.715,0,0,0,6.8,0l95.819-47.731a1.758,1.758,0,0,0,1.181-1.294c0-.449-.435-.92-1.181-1.294l-4.275-2.139a7.925,7.925,0,0,0-3.4-.706Z" transform="translate(-1.974 -166.681)" fill="#e0e0e0"/>
        <path id="Path_63" data-name="Path 63" d="M397.028,317.185l-8.077-4.011c-1.044-.524-.882-1.187,1.392-1.487l13.271-1.872c1.814-.31,2.746.128,2.026,1.069l-5.99,6.171a2.353,2.353,0,0,1-2.622.128Z" transform="translate(19.416 -167.091)" fill="#407bff"/>
        <path id="Path_64" data-name="Path 64" d="M301.634,374.8l-5.269-2.62,5.269-2.61a.636.636,0,0,0,.292-.936.87.87,0,0,0-1.087-.251l-6.052,3.005-6.064-3.005a.87.87,0,0,0-1.081.246.644.644,0,0,0,.286.941l5.269,2.61-5.269,2.62a.7.7,0,0,0-.37.414.593.593,0,0,0,.084.517.839.839,0,0,0,.683.342.865.865,0,0,0,.4-.1l6.064-3.005,6.052,3.005a.867.867,0,0,0,.4.1.812.812,0,0,0,.683-.342.593.593,0,0,0,.084-.517A.7.7,0,0,0,301.634,374.8Z" transform="translate(-5.042 -163.021)" fill="#e0e0e0"/>
        <path id="Path_65" data-name="Path 65" d="M96.3,261.868a.922.922,0,0,1-.621-.246.631.631,0,0,1-.149-.631l2.137-6.3a.837.837,0,0,1,.994-.46.772.772,0,0,1,.473.326.591.591,0,0,1,.061.519L97.365,260.4l11.606-.92a.874.874,0,0,1,.584.147.652.652,0,0,1,.285.463.622.622,0,0,1-.179.5.841.841,0,0,1-.542.245l-12.774,1.016Z" transform="translate(-51.636 -170.948)" fill="#455a64"/>
        <path id="Path_66" data-name="Path 66" d="M104.319,254.4a1.114,1.114,0,0,1-.41-.128c-.1-.075-.162-.139-.162-.214l-.137-2.781a1,1,0,0,1,0-.192.219.219,0,0,1,.137-.16l.982-.492a.739.739,0,0,1,.373-.053,1.275,1.275,0,0,1,.41.118l10.811,5.347a.389.389,0,0,1,.211.2.145.145,0,0,1-.1.182l-1.019.5a.667.667,0,0,1-.373.053,1.1,1.1,0,0,1-.423-.107l-8.251-4.107.075,1.807a.191.191,0,0,1-.162.171,1.152,1.152,0,0,1-.41,0Z" transform="translate(-49.668 -171.214)" fill="#455a64"/>
        <path id="Path_67" data-name="Path 67" d="M212.77,198.008c-.509.1-3.02.513-3.442.62s-.721.182-.609.471a6.914,6.914,0,0,1,.249,1.2c0,.214-.149.321-.659.406a24.5,24.5,0,0,1-4.449.535,28.457,28.457,0,0,1-4.25-.225c-.534-.064-.534-.246-.534-.417a4.968,4.968,0,0,0-.087-.556V199.9a2.05,2.05,0,0,0-.186-.31.921.921,0,0,0-.621-.278l-3.591-.727c-.957-.2-1.131,0-1.33.1l-.683.31a.751.751,0,0,0-.5.663c0,.332,0,1.176,1.64,2.011a8.5,8.5,0,0,0,1.342.492,20.31,20.31,0,0,0,3.579.556,39.069,39.069,0,0,0,10.972-.353c4.846-1.069,4.386-1.283,4.971-1.626s1.243-1.412.7-1.946a3.212,3.212,0,0,0-1.417-.909A5.945,5.945,0,0,0,212.77,198.008Z" transform="translate(-28.201 -174.861)" fill="#455a64" fill-rule="evenodd"/>
        <ellipse id="Ellipse_1" data-name="Ellipse 1" cx="9.121" cy="4.535" rx="9.121" ry="4.535" transform="translate(77.13 65.028)" fill="#407bff"/>
        <path id="Path_68" data-name="Path 68" d="M138.5,235.1a3.119,3.119,0,0,1-1.056-.845,1.113,1.113,0,0,1-.224-.941,2.087,2.087,0,0,1,.671-1.016,6.354,6.354,0,0,1,1.628-1.07,10.83,10.83,0,0,1,2.361-.888,9.832,9.832,0,0,1,1.976-.31,6.613,6.613,0,0,1,1.5.064,5.118,5.118,0,0,1,.932.235c.1.053.149.107.124.182a.3.3,0,0,1-.186.182l-1.168.588a.906.906,0,0,1-.323.086,1.27,1.27,0,0,1-.286,0h-.373a3.533,3.533,0,0,0-.733,0,6.21,6.21,0,0,0-1.031.182,6.277,6.277,0,0,0-1.243.471c-.721.364-1.131.727-1.243,1.069s.124.727.671,1.069l.982.524,1.056.492a4.448,4.448,0,0,0,2.212.406,6.318,6.318,0,0,0,3.094-1.176,1.446,1.446,0,0,0,.447-.545.585.585,0,0,0-.087-.545,2.08,2.08,0,0,0-.733-.545h-.1l-1.765.877a1.054,1.054,0,0,1-.385.086.692.692,0,0,1-.348-.064l-.895-.438a.18.18,0,0,1-.124-.182.314.314,0,0,1,.174-.182l3.33-1.658a1.054,1.054,0,0,1,.385-.086.692.692,0,0,1,.348.064l1.379.684a3.272,3.272,0,0,1,1.118.824,1.148,1.148,0,0,1,.261.952,2.063,2.063,0,0,1-.659,1.069,6.78,6.78,0,0,1-1.678,1.07,12.068,12.068,0,0,1-2.15.823,10.4,10.4,0,0,1-2.05.321,8.7,8.7,0,0,1-1.914-.139,7.057,7.057,0,0,1-1.69-.524l-.547-.257-.6-.289c-.211-.1-.4-.2-.584-.3Z" transform="translate(-41.52 -172.628)" fill="#455a64"/>
        <path id="Path_69" data-name="Path 69" d="M150.579,228.755c-.584.289-.895.545-.932.781s.2.481.708.738l3.256,1.615a.17.17,0,0,1,.124.182.281.281,0,0,1-.174.182l-1.106.545a.784.784,0,0,1-.373.086.7.7,0,0,1-.348-.053l-5.853-2.909a.168.168,0,0,1-.112-.171c0-.075,0-.139.174-.192l1.094-.545a.855.855,0,0,1,.373-.086.635.635,0,0,1,.36.064l.286.139a1.391,1.391,0,0,1,.336-.631,3.619,3.619,0,0,1,.969-.642l.646-.321a.855.855,0,0,1,.373-.086.635.635,0,0,1,.36.064l.833.406a.167.167,0,0,1,.112.182c0,.064-.062.128-.174.182Z" transform="translate(-39.438 -172.807)" fill="#455a64"/>
        <path id="Path_70" data-name="Path 70" d="M152.989,225.467a8.555,8.555,0,0,1,3.355-.866,8.189,8.189,0,0,1,1.628.064,4.958,4.958,0,0,1,1.4.374l.311.128.348.182.348.171.261.139a2.111,2.111,0,0,1,.746.706,1.023,1.023,0,0,1,.124.8,1.754,1.754,0,0,1-.522.845,4.956,4.956,0,0,1-1.243.824,7.786,7.786,0,0,1-1.653.61,9.557,9.557,0,0,1-1.7.267,8.059,8.059,0,0,1-1.615-.064,6.068,6.068,0,0,1-1.354-.342l-.3-.128-.36-.171-.335-.171-.273-.16a1.911,1.911,0,0,1-.746-.7,1.041,1.041,0,0,1-.124-.813,1.805,1.805,0,0,1,.522-.845A4.867,4.867,0,0,1,152.989,225.467Zm4.573.535a3.147,3.147,0,0,0-.857-.214,3.5,3.5,0,0,0-.82,0,4.127,4.127,0,0,0-.746.16,4.8,4.8,0,0,0-.646.267,5.314,5.314,0,0,0-.547.321,1.1,1.1,0,0,0-.323.374.466.466,0,0,0,0,.406,1.013,1.013,0,0,0,.435.428l.224.128.311.16.323.16.273.107a3.18,3.18,0,0,0,.857.225,4.2,4.2,0,0,0,.82,0,3.777,3.777,0,0,0,.733-.16,5.773,5.773,0,0,0,.659-.267,3.463,3.463,0,0,0,.534-.321,1.033,1.033,0,0,0,.323-.374.466.466,0,0,0,0-.406,1.138,1.138,0,0,0-.435-.428l-.236-.128-.323-.15-.311-.16Z" transform="translate(-38.107 -173.005)" fill="#455a64"/>
        <path id="Path_71" data-name="Path 71" d="M156.965,223.6c-.1-.053-.137-.107-.124-.182a.279.279,0,0,1,.2-.214l1.094-.545a.87.87,0,0,1,.385-.086.7.7,0,0,1,.348.053l3.144,1.647a3.852,3.852,0,0,0,1.566.417,3.292,3.292,0,0,0,1.665-.374c.509-.257.746-.524.721-.813s-.3-.545-.8-.791l-3.156-1.647a.158.158,0,0,1-.112-.171c0-.075,0-.128.174-.182l1.094-.556a1.406,1.406,0,0,1,.373-.086.878.878,0,0,1,.36.064l5.84,2.909a.136.136,0,0,1,.124.171.236.236,0,0,1-.174.182l-1.106.556a.924.924,0,0,1-.373.086.82.82,0,0,1-.348-.064l-.3-.139a1.451,1.451,0,0,1-.3.663,2.519,2.519,0,0,1-.957.706,6.474,6.474,0,0,1-1.7.61,6.16,6.16,0,0,1-1.566.139,5.7,5.7,0,0,1-1.429-.214,7.886,7.886,0,0,1-1.243-.481Z" transform="translate(-36.752 -173.319)" fill="#455a64"/>
        <path id="Path_72" data-name="Path 72" d="M174.23,220.7a6.794,6.794,0,0,1-.882.364,7.314,7.314,0,0,1-.808.214,6.536,6.536,0,0,1-.708.107h-.547l2.672,1.326a.161.161,0,0,1,.124.171.267.267,0,0,1-.174.193l-1.094.545a1.055,1.055,0,0,1-.385.086.692.692,0,0,1-.348-.064l-8.239-4.085a.168.168,0,0,1-.112-.171c0-.075.062-.139.174-.192l1.094-.545a.87.87,0,0,1,.385-.086.592.592,0,0,1,.348.064l.286.139a.938.938,0,0,1,.062-.278,1.493,1.493,0,0,1,.211-.342,2.3,2.3,0,0,1,.435-.406,5.06,5.06,0,0,1,.733-.438,6.183,6.183,0,0,1,1.553-.524,7.977,7.977,0,0,1,1.653-.171,8.622,8.622,0,0,1,1.591.139,6.271,6.271,0,0,1,1.379.417l.447.214.435.225a2.71,2.71,0,0,1,.833.684,1.293,1.293,0,0,1,.3.791,1.433,1.433,0,0,1-.348.823,3.2,3.2,0,0,1-1.069.8Zm-1.69-2.139a3.694,3.694,0,0,0-.708-.342,3.809,3.809,0,0,0-1.752-.3,4.17,4.17,0,0,0-1.553.417,1.506,1.506,0,0,0-.833.781c-.075.278.075.545.485.791a4.73,4.73,0,0,0,.447.257,4.007,4.007,0,0,0,.509.214,3.5,3.5,0,0,0,1.578.235,4.042,4.042,0,0,0,1.578-.406,1.573,1.573,0,0,0,.845-.77c.087-.332-.112-.62-.6-.92Z" transform="translate(-35.08 -173.56)" fill="#455a64"/>
        <path id="Path_73" data-name="Path 73" d="M174.646,213.216a.855.855,0,0,1,.373-.086.724.724,0,0,1,.36.053l1.243.61c.087.053.137.107.124.182a.281.281,0,0,1-.174.182l-1.354.674a.784.784,0,0,1-.373.086.663.663,0,0,1-.348-.064l-1.243-.61a.161.161,0,0,1-.124-.171.267.267,0,0,1,.174-.192Zm4.4,2.139a.784.784,0,0,1,.373-.086.7.7,0,0,1,.348.054l1.243.61c.1.053.137.107.124.182a.258.258,0,0,1-.174.182l-1.342.674a1.054,1.054,0,0,1-.385.086.819.819,0,0,1-.348-.064l-1.243-.61a.171.171,0,0,1-.124-.171.3.3,0,0,1,.174-.192Z" transform="translate(-32.8 -173.801)" fill="#455a64"/>
        <path id="Path_74" data-name="Path 74" d="M183.241,215.931a1.117,1.117,0,0,0,.609-.652.829.829,0,0,0-.261-.717,4.552,4.552,0,0,0-1.044-.813q-.835-.513-1.727-.952c-.683-.342-1.317-.62-1.9-.856a9.813,9.813,0,0,0-1.64-.513,5.743,5.743,0,0,0-1.441-.128,3.9,3.9,0,0,0-1.3.3,1.11,1.11,0,0,1-.385.086.7.7,0,0,1-.348-.054l-.833-.417a.192.192,0,0,1-.124-.171.293.293,0,0,1,.186-.192,7.72,7.72,0,0,1,2.2-.706,8.346,8.346,0,0,1,2.311,0,11.773,11.773,0,0,1,2.485.588,23.3,23.3,0,0,1,2.7,1.155,17.228,17.228,0,0,1,2.311,1.337,3.681,3.681,0,0,1,1.243,1.23,1.107,1.107,0,0,1,0,1.155,3.477,3.477,0,0,1-1.429,1.069.784.784,0,0,1-.373.086.7.7,0,0,1-.348-.053l-.833-.417a.168.168,0,0,1-.112-.171.26.26,0,0,1,.062-.193Z" transform="translate(-32.87 -174.014)" fill="#455a64"/>
        <path id="Path_75" data-name="Path 75" d="M234.279,207.226a21.808,21.808,0,0,0-17.26,0c-4.772,2.364-4.772,6.2,0,8.556a21.9,21.9,0,0,0,17.26,0C239.051,213.429,239.051,209.589,234.279,207.226Z" transform="translate(-23.019 -174.335)" fill="#f5f5f5"/>
        <path id="Path_76" data-name="Path 76" d="M143.158,257.538c-2.038,1.005-2.038,2.642,0,3.658l21.411,10.641a9.383,9.383,0,0,0,7.369,0l67.45-33.517c2.038-1.069,2.038-2.652,0-3.668l-19.335-9.625,5.753-8.556Z" transform="translate(-40.442 -173.569)" fill="#fafafa"/>
        <path id="Path_77" data-name="Path 77" d="M211.356,228.728,151.71,258.363c-1.019.5-1.243,1.23-.41,1.626a4.178,4.178,0,0,0,3.281-.2l59.646-29.624c1.019-.5,1.243-1.23.4-1.626a4.267,4.267,0,0,0-3.268.193Z" transform="translate(-38.22 -172.747)" fill="#e6e6e6"/>
        <path id="Path_78" data-name="Path 78" d="M216,231.418l-59.646,29.635c-1.019.5-1.243,1.23-.4,1.626a4.267,4.267,0,0,0,3.268-.192l59.646-29.635c1.019-.5,1.243-1.23.4-1.626a4.267,4.267,0,0,0-3.268.193Z" transform="translate(-37.093 -172.56)" fill="#e6e6e6"/>
        <path id="Path_79" data-name="Path 79" d="M220.646,234.108,161,263.743c-1.019.5-1.243,1.23-.4,1.626a4.267,4.267,0,0,0,3.281-.192l59.646-29.635c1.019-.5,1.243-1.23.41-1.626a4.266,4.266,0,0,0-3.293.193Z" transform="translate(-35.965 -172.374)" fill="#e6e6e6"/>
        <path id="Path_80" data-name="Path 80" d="M219.431,314.225a21.925,21.925,0,0,0-17.273,0c-4.772,2.374-4.772,6.214,0,8.556a21.837,21.837,0,0,0,17.273,0C224.191,320.439,224.191,316.6,219.431,314.225Z" transform="translate(-26.624 -166.901)" fill="#f5f5f5"/>
        <path id="Path_81" data-name="Path 81" d="M234.943,309.965l19.348,9.625a9.3,9.3,0,0,0,7.369,0l67.487-33.539c2.038-1.005,2.038-2.642,0-3.658L307.724,271.7a9.383,9.383,0,0,0-7.369,0L217.67,312.82Z" transform="translate(-21.992 -169.785)" fill="#fafafa"/>
        <path id="Path_82" data-name="Path 82" d="M298.635,276.878l-59.646,29.635c-1.019.5-1.243,1.23-.4,1.626a4.178,4.178,0,0,0,3.281-.2l59.646-29.624c1.019-.5,1.243-1.241.4-1.636a4.265,4.265,0,0,0-3.281.2Z" transform="translate(-17.042 -169.403)" fill="#e6e6e6"/>
        <path id="Path_83" data-name="Path 83" d="M303.275,279.568,243.628,309.2c-1.007.5-1.243,1.23-.4,1.626a4.178,4.178,0,0,0,3.281-.2L306.158,281c1.019-.5,1.243-1.241.41-1.626A4.266,4.266,0,0,0,303.275,279.568Z" transform="translate(-15.916 -169.216)" fill="#e6e6e6"/>
        <path id="Path_84" data-name="Path 84" d="M307.916,282.258,248.27,311.893c-1.019.5-1.243,1.23-.41,1.626a4.178,4.178,0,0,0,3.281-.2l59.646-29.624c1.019-.5,1.243-1.241.4-1.626a4.267,4.267,0,0,0-3.268.193Z" transform="translate(-14.791 -169.028)" fill="#e6e6e6"/>
        <path id="Path_85" data-name="Path 85" d="M352.26,275.055a21.925,21.925,0,0,0-17.273,0c-4.759,2.374-4.759,6.214,0,8.556a21.925,21.925,0,0,0,17.273,0C356.994,281.269,356.994,277.429,352.26,275.055Z" transform="translate(5.607 -169.622)" fill="#f5f5f5"/>
        <path id="Path_86" data-name="Path 86" d="M274.987,316.81c-2.025,1.016-2.025,2.652,0,3.658l15.769,7.775a9.383,9.383,0,0,0,7.369,0l50.227-24.962c2.038-1.005,2.038-2.642,0-3.658l-13.669-6.738,5.766-8.556Z" transform="translate(-8.454 -168.855)" fill="#fafafa"/>
        <path id="Path_87" data-name="Path 87" d="M324.436,295.032,281.18,316.421c-1.019.513-1.243,1.241-.41,1.636a4.266,4.266,0,0,0,3.281-.2l43.244-21.486c1.019-.5,1.243-1.23.4-1.626A4.17,4.17,0,0,0,324.436,295.032Z" transform="translate(-6.806 -168.145)" fill="#e6e6e6"/>
        <path id="Path_88" data-name="Path 88" d="M329.083,297.678l-43.244,21.486c-1.019.5-1.243,1.23-.4,1.626a4.266,4.266,0,0,0,3.281-.2l43.231-21.464c1.019-.5,1.243-1.23.41-1.626A4.179,4.179,0,0,0,329.083,297.678Z" transform="translate(-5.675 -167.957)" fill="#e6e6e6"/>
        <path id="Path_89" data-name="Path 89" d="M333.722,300.369l-43.244,21.486c-1.007.5-1.243,1.23-.4,1.626a4.266,4.266,0,0,0,3.281-.2L336.6,301.791c1.019-.5,1.243-1.23.4-1.626a4.178,4.178,0,0,0-3.281.2Z" transform="translate(-4.548 -167.771)" fill="#e6e6e6"/>
        <path id="Path_90" data-name="Path 90" d="M380.521,291.645a21.925,21.925,0,0,0-17.273,0c-4.772,2.374-4.772,6.214,0,8.556a21.925,21.925,0,0,0,17.273,0C385.281,297.859,385.281,294.019,380.521,291.645Z" transform="translate(12.462 -168.47)" fill="#f5f5f5"/>
        <path id="Path_91" data-name="Path 91" d="M324.087,320.534c-2.025,1.005-2.025,2.652,0,3.658l7.791,3.839a9.354,9.354,0,0,0,7.356,0l24.331-12.053c2.038-1.005,2.038-2.642,0-3.658l-5.666-2.845,5.753-8.556Z" transform="translate(3.459 -167.702)" fill="#fafafa"/>
        <path id="Path_92" data-name="Path 92" d="M336.723,319.573a6.365,6.365,0,0,0-4.971,0,1.267,1.267,0,0,0,0,2.492,6.365,6.365,0,0,0,4.971,0,1.267,1.267,0,0,0,0-2.492Z" transform="translate(5.436 -166.441)" fill="#e6e6e6"/>
        <path id="Path_93" data-name="Path 93" d="M343.235,315.833a6.278,6.278,0,0,0-4.971,0,1.259,1.259,0,0,0,0,2.481,6.366,6.366,0,0,0,4.971,0,1.259,1.259,0,0,0,0-2.481Z" transform="translate(7.014 -166.702)" fill="#e6e6e6"/>
        <path id="Path_94" data-name="Path 94" d="M349.735,312.083a6.322,6.322,0,0,0-4.971,0,1.259,1.259,0,0,0,0,2.481,6.278,6.278,0,0,0,4.971,0,1.259,1.259,0,0,0,0-2.481Z" transform="translate(8.591 -166.962)" fill="#e6e6e6"/>
        <path id="Path_95" data-name="Path 95" d="M170.68,286.116a21.837,21.837,0,0,0-17.273,0c-4.759,2.364-4.759,6.214,0,8.556a21.808,21.808,0,0,0,17.26,0C175.451,292.3,175.451,288.447,170.68,286.116Z" transform="translate(-38.451 -168.854)" fill="#f5f5f5"/>
        <path id="Path_96" data-name="Path 96" d="M186.19,280.7l7.829,3.893a9.3,9.3,0,0,0,7.369,0L234.3,268.226c2.038-1.005,2.038-2.642,0-3.658l-9.941-4.92a9.354,9.354,0,0,0-7.356,0L168.93,283.605Z" transform="translate(-33.818 -170.622)" fill="#fafafa"/>
        <path id="Path_97" data-name="Path 97" d="M215.353,262.448,186.5,276.79c-1.019.5-1.243,1.23-.4,1.626a4.178,4.178,0,0,0,3.281-.2l28.842-14.331c1.019-.5,1.243-1.241.41-1.626a4.267,4.267,0,0,0-3.281.193Z" transform="translate(-29.778 -170.405)" fill="#e6e6e6"/>
        <path id="Path_98" data-name="Path 98" d="M219.984,265.139l-28.8,14.342c-1.019.5-1.243,1.23-.41,1.626a4.178,4.178,0,0,0,3.281-.2L222.9,266.572c1.019-.5,1.243-1.241.4-1.626a4.265,4.265,0,0,0-3.318.192Z" transform="translate(-28.643 -170.219)" fill="#e6e6e6"/>
        <path id="Path_99" data-name="Path 99" d="M195.069,300.116a21.808,21.808,0,0,0-17.26,0c-4.772,2.374-4.772,6.214,0,8.556a21.808,21.808,0,0,0,17.26,0C199.816,306.372,199.816,302.533,195.069,300.116Z" transform="translate(-32.532 -167.882)" fill="#f5f5f5"/>
        <path id="Path_100" data-name="Path 100" d="M210.56,294.777l7.829,3.882a9.3,9.3,0,0,0,7.369,0L258.675,282.3c2.038-1.005,2.038-2.642,0-3.658l-9.941-4.92a9.354,9.354,0,0,0-7.356,0L193.3,297.6Z" transform="translate(-27.905 -169.644)" fill="#fafafa"/>
        <path id="Path_101" data-name="Path 101" d="M239.722,276.518,210.868,290.86c-1.007.5-1.243,1.23-.4,1.626a4.267,4.267,0,0,0,3.281-.193l28.854-14.342c1.007-.5,1.243-1.23.4-1.626A4.266,4.266,0,0,0,239.722,276.518Z" transform="translate(-23.864 -169.427)" fill="#e6e6e6"/>
        <path id="Path_102" data-name="Path 102" d="M244.361,279.208,215.52,293.55c-1.019.5-1.243,1.23-.41,1.626a4.266,4.266,0,0,0,3.281-.193l28.854-14.342c1.019-.5,1.243-1.23.4-1.626A4.266,4.266,0,0,0,244.361,279.208Z" transform="translate(-22.737 -169.241)" fill="#e6e6e6"/>
      </g>
    </g>
    <g id="freepik--character-4--inject-7" transform="translate(365.304 136.925)">
      <ellipse id="freepik--shadow--inject-7-2" data-name="freepik--shadow--inject-7" cx="38.944" cy="19.347" rx="38.944" ry="19.347" transform="translate(24.292 157.971)" opacity="0.1"/>
      <g id="freepik--Character--inject-7">
        <path id="Path_103" data-name="Path 103" d="M353.23,159.091l1.292,10.481,11.445-.16L364.7,157.54Z" transform="translate(-283.048 -128.237)" fill="#f28f8f"/>
        <path id="Path_104" data-name="Path 104" d="M346.787,147.45s-3.094,4.278-2.721,4.652a10,10,0,0,0,2.746.727Z" transform="translate(-285.279 -128.938)" fill="#b16668"/>
        <path id="Path_105" data-name="Path 105" d="M353.858,137.819c-5.753,1.155-7.369,3.38-7.7,11.294-.348,8.278.7,10.855,1.988,11.935.87.738,5.6.781,7.978.171,2.97-.77,9.668-2.952,12.712-7.176,3.591-4.962,4.4-11.6.348-14.245C363.476,136.076,356.206,137.338,353.858,137.819Z" transform="translate(-284.781 -129.649)" fill="#f28f8f"/>
        <path id="Path_106" data-name="Path 106" d="M346.4,141.68a5.532,5.532,0,0,0,3.554.952c-.249,0-.162.92-.137,1.069a1.843,1.843,0,0,0,.7.973,2.464,2.464,0,0,0,2.6.385c-.783.556-.186,2.235.087,2.93s.46,1.679,1.516,2.053c0,0,.845-3.08,3.84-2.749s3.517,3.626,1.665,5.668-3.628,1.3-3.628,1.3.211,4.363,2.485,6.791a23.957,23.957,0,0,0,8.164-.332c1.852-1.786,3.9-3.978,6.6-7.123,5.281-6.139,4.548-13.251-.671-15.026a16.77,16.77,0,0,0-.162-2.813,4.112,4.112,0,0,0-1.678-2.246,12.4,12.4,0,0,0-6.362-1.882c-2.634-.139-5.269.192-7.9.171a29.932,29.932,0,0,1-8.462-1.251c-1.168-.353-2.585-.727-3.5,0a2.083,2.083,0,0,0-.6,2.064,5.863,5.863,0,0,0,2.634,3.839,2.794,2.794,0,0,1-1.715-.385,1.385,1.385,0,0,0-1.746-.23.981.981,0,0,0-.267,1.5A7.268,7.268,0,0,0,346.4,141.68Z" transform="translate(-285.49 -130.14)" fill="#263238"/>
        <path id="Path_107" data-name="Path 107" d="M367.5,139.171l3.4-1.818a2.2,2.2,0,0,0-2.759-.556A1.591,1.591,0,0,0,367.5,139.171Z" transform="translate(-279.659 -129.696)" fill="#263238"/>
        <path id="Path_108" data-name="Path 108" d="M329.04,304.51c-.249.075-.3,1.337,0,1.743a7.889,7.889,0,0,0,4.971,2.524c3.243.556,7.729,0,9.643-.1q4.991.147,9.941.759c3.02.353,5.343-.214,6.462-1.155a1.561,1.561,0,0,0,.46-1.38c0-1.069-.174-1.315-.323-1.3Z" transform="translate(-288.967 -118.026)" fill="#263238"/>
        <path id="Path_109" data-name="Path 109" d="M359.667,302.764a3.3,3.3,0,0,0,.162.652,9.377,9.377,0,0,1,.273,3.369,3.515,3.515,0,0,1-2.311,1.508,13.863,13.863,0,0,1-6.536.118A53.22,53.22,0,0,0,343.6,308a56.014,56.014,0,0,1-6.7.289,18.455,18.455,0,0,1-4.97-.866c-1.33-.492-2.684-1.069-3.007-2.289a3.778,3.778,0,0,1,2.485-3.85,11.473,11.473,0,0,1,4.971-.93c1.876,0,3.293.214,4.971.107a27.387,27.387,0,0,0,4.275-.513c1.243-.342,3.119-1.39,3.653-1.444,0,0,7.853-.171,8.7-.107s1.081,1.754,1.243,2.289.112.866.236,1.262S359.593,302.5,359.667,302.764Z" transform="translate(-288.951 -118.452)" fill="#37474f"/>
        <path id="Path_110" data-name="Path 110" d="M342,300.093a4.811,4.811,0,0,0-2.038,3.037c0,.823-1.64.9-1.69.075a6.541,6.541,0,0,1,1.479-2.909A4.764,4.764,0,0,1,342,300.093Z" transform="translate(-286.678 -118.337)" fill="#fafafa"/>
        <path id="Path_111" data-name="Path 111" d="M338.893,300.374a5.009,5.009,0,0,0-1.814,2.791c0,.61-1.5.556-1.479-.053a3.834,3.834,0,0,1,1.814-2.781A1.443,1.443,0,0,1,338.893,300.374Z" transform="translate(-287.326 -118.329)" fill="#fafafa"/>
        <path id="Path_112" data-name="Path 112" d="M358.345,284.11c-.249,2.31-.323,2.93.348,4.449a9.675,9.675,0,0,0,3.728,4.032,17.758,17.758,0,0,1,3.343,3.348,15.184,15.184,0,0,0,3.479,3.593c1.081.77,4.063.791,5.492.246s1.9-1.016,1.777-2.995-7.133-2.535-7.133-2.535Z" transform="translate(-281.85 -119.444)" fill="#263238"/>
        <path id="Path_113" data-name="Path 113" d="M375.472,291.029c.6.182.77,1.155.907,3.091.1,1.465.87,3.6-1.454,4.567a6.422,6.422,0,0,1-6.213-1.069c-1.64-1.69-2.759-3.208-5.082-5.262-2.025-1.8-4.1-2.374-5.057-6.021-.621-2.331-.2-3.315,1.615-4.021,2.485-.973,6.549,1.989,8.537,2.428C370.415,285.2,374.876,290.847,375.472,291.029Z" transform="translate(-281.817 -119.582)" fill="#37474f"/>
        <path id="Path_114" data-name="Path 114" d="M367.8,284.616l-.335-.086a6.59,6.59,0,0,0-5.406,3.208c-.311.642.733,1.123,1.342.62a7.022,7.022,0,0,1,5.393-3.208A3.18,3.18,0,0,0,367.8,284.616Z" transform="translate(-280.919 -119.414)" fill="#fafafa"/>
        <path id="Path_115" data-name="Path 115" d="M368.982,285.62a6.5,6.5,0,0,0-4.971,3.144c-.323.652.733,1.134,1.342.62a6.535,6.535,0,0,1,4.486-3.005C369.529,286.112,369.256,285.855,368.982,285.62Z" transform="translate(-280.447 -119.339)" fill="#fafafa"/>
        <path id="Path_116" data-name="Path 116" d="M377.481,255.6l-14.141,1.572s.373,7.486,1.243,15.678c.721,6.823,1.6,16.534,2.05,19.636a6.581,6.581,0,0,0,.149.973c.236,1.829,7.456,2.385,7.456.267l.137-2.47C374.984,283.888,378.189,266.626,377.481,255.6Z" transform="translate(-280.595 -121.424)" fill="#f28f8f"/>
        <path id="Path_117" data-name="Path 117" d="M356.3,257.75l-11.755,1.412.969,41.367v.727c.075,1.84,1.243,2.449,4.188,2.545,3.579.118,4.971-1.219,4.971-2.224v-.31c1.243-9.625,3.156-25.507,3.417-30.747A35.313,35.313,0,0,0,356.3,257.75Z" transform="translate(-285.156 -121.275)" fill="#f28f8f"/>
        <path id="Path_118" data-name="Path 118" d="M387.857,197.147c-2.485-25.475-7.965-34.736-20.317-33.924l3.927,14.363s5.828,16.994,6.213,22.812c.323,5.1.572,11.508-.3,15.743a3.1,3.1,0,0,1-1.33,1.893,18.755,18.755,0,0,0-3.865,3.957c-1.044,1.176-2.013,1.529-1.814,1.861a2.151,2.151,0,0,0,2.585.513,13.1,13.1,0,0,0,2.61-1.594,14.565,14.565,0,0,1-2.349,4.577c-2.423,3.208-2.311,5.059,3.355,4.556,3.554-.31,6.586-2.406,8.388-9.4.522-2.011,1.342-4.93,1.963-8.042a54.062,54.062,0,0,0,.932-17.315Z" transform="translate(-279.576 -127.846)" fill="#f28f8f"/>
        <path id="Path_119" data-name="Path 119" d="M367.6,163.091c5.12-.118,9.456.642,13.594,6.288s6.673,22.619,6.872,26.683.174,6.706.174,6.706l-10.426.706a50.405,50.405,0,0,0-1.181-7.026c-.683-2.139-3.591-14.973-6.872-21.176Z" transform="translate(-279.561 -127.852)" fill="#407bff"/>
        <g id="Group_12" data-name="Group 12" transform="translate(88.039 35.228)" opacity="0.35">
          <path id="Path_120" data-name="Path 120" d="M367.6,163.091c5.12-.118,9.456.642,13.594,6.288s6.673,22.619,6.872,26.683.174,6.706.174,6.706l-10.426.706a50.405,50.405,0,0,0-1.181-7.026c-.683-2.139-3.591-14.973-6.872-21.176Z" transform="translate(-367.6 -163.08)"/>
        </g>
        <path id="Path_121" data-name="Path 121" d="M375.82,200.927a13.861,13.861,0,0,1,4.722-1.134,18.678,18.678,0,0,1,5.7.428,46.793,46.793,0,0,1-.286,4.984s-3.579-1.636-10.016,0Z" transform="translate(-277.567 -125.305)" fill="#455a64"/>
        <path id="Path_122" data-name="Path 122" d="M382.857,260.625c-.348-7.069-1.243-7.219-2.485-12.748.659-6.738,1.243-12.406,1.566-19.7a235.712,235.712,0,0,0-.584-25.732c-10.016-.577-34.595-7.732-37.739,5.829-.919,10.951.36,32.63.5,47.549s.634,32.148,1.243,48.565c2.883.909,7.717,1.487,10.525-.139,1.976-11.2,3.728-25.667,4.486-31.849.994-7.593,0-10.641,0-14.1.485-5.957,2.982-26.138,2.982-26.138s.808,7.668,1.367,14.769,1.541,11.187,2.411,19.315c.808,7.486,2.336,20.406,3.181,29.079,2.373.962,6.213,1.8,9.469.214C380.21,287.009,383.192,267.684,382.857,260.625Z" transform="translate(-285.461 -125.284)" fill="#37474f"/>
        <g id="Group_13" data-name="Group 13" transform="translate(77.874 92.434)" opacity="0.2">
          <path id="Path_123" data-name="Path 123" d="M360.675,221.03c4.15-.31,5.927-1.647,8.86-4.46a8.971,8.971,0,0,1-6.9,6.149c-.075.417-1.727,8.684-1.727,8.684l-.249,12.427L359.42,231Z" transform="translate(-359.42 -216.57)"/>
        </g>
        <path id="Path_124" data-name="Path 124" d="M343.6,211.308a43.085,43.085,0,0,0,14.427,1.069l-.77-13.668-13.669,1.765Z" transform="translate(-285.387 -125.377)" fill="#455a64"/>
        <path id="Path_125" data-name="Path 125" d="M380.8,167.989a7.664,7.664,0,0,0-8.574-4.8c-7.953,1.273-15.471,2-20.18,3.444-.41.128-3.417.8-3.84.973-3.542,1.465-4.312,4.278-4.61,14.277,0,0-1.031,26.844-.87,34.63a34.794,34.794,0,0,0,4.386,1.208l1.653-9.219,2.075,9.786c6.574.845,14.315.93,18.043.225,11.917-2.235,13.495-5.454,13.495-5.454s-.609-10.449-1.243-20.085c0,0,2.088-11.272,1.963-14.064C382.761,172,381.593,170.011,380.8,167.989Z" transform="translate(-285.601 -127.852)" fill="#407bff"/>
        <g id="Group_14" data-name="Group 14" transform="translate(57.105 35.223)" opacity="0.2">
          <path id="Path_126" data-name="Path 126" d="M380.8,167.989a7.664,7.664,0,0,0-8.574-4.8c-7.953,1.273-15.471,2-20.18,3.444-.41.128-3.417.8-3.84.973-3.542,1.465-4.312,4.278-4.61,14.277,0,0-1.031,26.844-.87,34.63a34.794,34.794,0,0,0,4.386,1.208l1.653-9.219,2.075,9.786c6.574.845,14.315.93,18.043.225,11.917-2.235,13.495-5.454,13.495-5.454s-.609-10.449-1.243-20.085c0,0,2.088-11.272,1.963-14.064C382.761,172,381.593,170.011,380.8,167.989Z" transform="translate(-342.706 -163.075)"/>
        </g>
        <path id="Path_127" data-name="Path 127" d="M354.478,163.211v.46a17.369,17.369,0,0,0,7.12.353c3.591-.684,4.25-2.075,4.25-2.075l-.075-.738s.746-.214,1.491.888a24.825,24.825,0,0,0,2.336,2.727s-.808,3.893-6.511,4.492c-9.432.995-12.749-2.6-12.749-2.6C351.856,165.125,353.509,163.125,354.478,163.211Z" transform="translate(-283.749 -127.983)" fill="#407bff"/>
        <g id="Group_15" data-name="Group 15" transform="translate(66.591 33.211)" opacity="0.35">
          <path id="Path_128" data-name="Path 128" d="M354.478,163.211v.46a17.369,17.369,0,0,0,7.12.353c3.591-.684,4.25-2.075,4.25-2.075l-.075-.738s.746-.214,1.491.888a24.825,24.825,0,0,0,2.336,2.727s-.808,3.893-6.511,4.492c-9.432.995-12.749-2.6-12.749-2.6C351.856,165.125,353.509,163.125,354.478,163.211Z" transform="translate(-350.34 -161.194)"/>
        </g>
        <path id="Path_129" data-name="Path 129" d="M310.046,187.418c1.951.749,24.989,15.4,28.581,13.7S359.838,180.7,359.838,180.7c5.356-7.636.808-13.721.808-13.721a13.213,13.213,0,0,0-10.513,4.727c-3.281,3.914-15.086,17.411-15.086,17.411-4.15-1.069-14.725-5.978-17.4-7.272a10.042,10.042,0,0,1-2.075-1.069c-1.3-1.069-1.466-3.283-1.441-4.738a15.98,15.98,0,0,1,.124-2.043c.112-.834.286-2.877-1.454-2.225a2.094,2.094,0,0,0-.833.6,3.2,3.2,0,0,0-.621,1.069c-.323.877-.224,1.84-.522,2.727a.8.8,0,0,1-.211.364.833.833,0,0,1-.559.139c-2.485-.064-4.971-3.123-6.1-4.748a4.767,4.767,0,0,0-1.926-1.893,3.721,3.721,0,0,0-3.952,1.315,6.163,6.163,0,0,0-1.243,4.813,9.141,9.141,0,0,0,3.318,6.043,35.665,35.665,0,0,0,9.891,5.219Z" transform="translate(-296.752 -127.581)" fill="#f28f8f"/>
        <path id="Path_130" data-name="Path 130" d="M355.734,166.826c-3.952-.3-6.959-1.315-12.352,4.994s-14.129,17.112-14.129,17.112l-4.076-1.219s-4.871,3.551-5.058,8.641c0,0,4.971,3.123,7.456,4.278s5.107,2.139,7.257.5,20.5-20.448,20.5-20.448A11.81,11.81,0,0,0,355.734,166.826Z" transform="translate(-291.082 -127.609)" fill="#407bff"/>
        <g id="Group_16" data-name="Group 16" transform="translate(29.038 38.971)" opacity="0.35">
          <path id="Path_131" data-name="Path 131" d="M355.734,166.826c-3.952-.3-6.959-1.315-12.352,4.994s-14.129,17.112-14.129,17.112l-4.076-1.219s-4.871,3.551-5.058,8.641c0,0,4.971,3.123,7.456,4.278s5.107,2.139,7.257.5,20.5-20.448,20.5-20.448A11.81,11.81,0,0,0,355.734,166.826Z" transform="translate(-320.12 -166.58)"/>
        </g>
        <path id="Path_132" data-name="Path 132" d="M326.192,186.451l-4.834-2.011a13.044,13.044,0,0,0-5.418,7.786l5.194,2.866a15.011,15.011,0,0,1,5.058-8.641Z" transform="translate(-292.096 -126.368)" fill="#455a64"/>
        <g id="Group_17" data-name="Group 17" transform="translate(36.192 61.002)" opacity="0.1">
          <path id="Path_133" data-name="Path 133" d="M327.857,187.479a12.623,12.623,0,0,0-1.976,4.577,11.029,11.029,0,0,1,.994-4.877" transform="translate(-325.877 -187.18)"/>
        </g>
        <path id="Path_134" data-name="Path 134" d="M347.74,159.561c.758.642,4.436.759,6.946.374l-.124-1.315a11.7,11.7,0,0,1-6.822.941Z" transform="translate(-284.38 -128.162)" fill="#b16668"/>
      </g>
    </g>
    <g id="freepik--character-3--inject-7" transform="translate(269.104 180.122)">
      <ellipse id="freepik--shadow--inject-7-3" data-name="freepik--shadow--inject-7" cx="40.721" cy="20.234" rx="40.721" ry="20.234" transform="translate(23.802 158.751)" opacity="0.1"/>
      <g id="freepik--character--inject-7-2" data-name="freepik--character--inject-7">
        <path id="Path_135" data-name="Path 135" d="M281.77,205.549c6.723-.652,9.295,1.069,11.8,5.839,2.4,4.577,9.7,18.374,9.332,21.593s-15.657,16.908-15.657,16.908l-4.362-4.567,9.456-13.679-7.456-13.807Z" transform="translate(-204.187 -168.108)" fill="#b16668"/>
        <g id="freepik--character--inject-7-3" data-name="freepik--character--inject-7">
          <path id="Path_136" data-name="Path 136" d="M270.89,201.421l1.267,11.358,11.793-.631-.944-12.588Z" transform="translate(-206.827 -168.515)" fill="#b16668"/>
          <path id="Path_137" data-name="Path 137" d="M258.755,181.6a4.353,4.353,0,0,1,0-1.6,4.919,4.919,0,0,1,2.729-3.34,6.429,6.429,0,0,1,4.727-.35,4.635,4.635,0,0,1,3.131-5.2,8.041,8.041,0,0,1,5.43.182,4.159,4.159,0,0,1,2.361,1.743,6.3,6.3,0,0,1,5.9-2.455,5.733,5.733,0,0,1,4.933,3.717c1.8-.342,4.337.342,5.132,1.872.92,1.754-.2,3.914.224,5.743.261,1.176.857,2.3,1.106,3.5a24.713,24.713,0,0,1,.447,4.053c.249,5.6-14.912,9.251-14.576,13.09l-8.052-8.438c0-.353-1.143-1.23-1.4-1.519-.472-.556-.907-1.155-1.354-1.743a12.49,12.49,0,0,0-5.555-3.818,10.055,10.055,0,0,1-3.964-2.8A5.615,5.615,0,0,1,258.755,181.6Z" transform="translate(-209.789 -170.531)" fill="#263238"/>
          <path id="Path_138" data-name="Path 138" d="M264.3,189.65s-2.61,3.337-2.274,3.69a7.035,7.035,0,0,0,2,.738Z" transform="translate(-208.985 -169.203)" fill="#9a4a4d"/>
          <path id="Path_139" data-name="Path 139" d="M271.907,179.817c-2.485,1.069-6.921,3.208-8.052,11.069-1.156,8.117.982,10.941,2.286,12.01.882.717,5.443.973,7.829.353,2.97-.781,9.419-3.476,12.426-7.668,3.554-4.93,4.287-11.508.186-14.085a17.68,17.68,0,0,0-14.675-1.679Z" transform="translate(-208.614 -169.947)" fill="#b16668"/>
          <path id="Path_140" data-name="Path 140" d="M265.83,201.537a15.642,15.642,0,0,0,6.362.438l-.074-1.465a18.506,18.506,0,0,1-3.007.845A12.364,12.364,0,0,1,265.83,201.537Z" transform="translate(-208.054 -168.449)" fill="#9a4a4d"/>
          <path id="Path_141" data-name="Path 141" d="M270.207,179.68a10.44,10.44,0,0,0-2.958,1.465,3.616,3.616,0,0,0-1.044,1.155,2.262,2.262,0,0,0-.211,1.3,3.539,3.539,0,0,0,2.373,2.823,3.056,3.056,0,0,0-.646,2.834,6.847,6.847,0,0,0,2.324,2.877.561.561,0,0,0,.2.128.652.652,0,0,0,.422-.107c1.591-.92,2.572-2.5,4.834-1.872,2.957.834,2.808,3.978.485,5.936a5.334,5.334,0,0,1-3.082,1.262,2.663,2.663,0,0,1-1.628-.492,6.582,6.582,0,0,0,4.213,5.722,19,19,0,0,0,8.848.086c1.553-1.7,4.175-3.882,6.325-5.839,7.108-6.417,7.456-15.743-2.957-18.694l-1.094-.278a25.648,25.648,0,0,0-10.289-.192,25.211,25.211,0,0,0-4.908,1.422C270.977,179.391,270.6,179.53,270.207,179.68Z" transform="translate(-208.02 -170.056)" fill="#263238"/>
          <path id="Path_142" data-name="Path 142" d="M269.4,194.1a2.111,2.111,0,0,1-1.286-.957,1.636,1.636,0,0,1-.094-1.46,2.355,2.355,0,0,1,2.858-1.134Z" transform="translate(-207.553 -169.149)" fill="#263238"/>
          <path id="Path_143" data-name="Path 143" d="M275.323,339.51a34.3,34.3,0,0,1,1.069,3.39c.286,1.262.721,3.369.2,4.278s-2.485,1.561-5.6,1.54c-2,0-5.12,1.155-7.269,2.139a22.026,22.026,0,0,1-9.133,1.251c-2.759-.278-5.617-1.658-6.064-2.631s-.82-2.331,6.648-4.385c0,0,9.022-2.535,12.165-5.518Z" transform="translate(-212.304 -158.792)" fill="#263238"/>
          <path id="Path_144" data-name="Path 144" d="M274.333,339.69l-1.429-.16-6.561.118c-3.144,2.984-12.1,5.5-12.165,5.518-.435.118-.82.225-1.243.342-1.3.9-.2,2.428,2.87,2.663s12.675-2.535,14.787-3.422a5.455,5.455,0,0,0,3.74-5.059Z" transform="translate(-211.314 -158.79)" fill="#b16668"/>
          <path id="Path_145" data-name="Path 145" d="M271.611,337.41v2.428c0,.888-1.243,2.192-4.337,2.139-2.212-.064-3.728-.578-3.653-2.139v-2.246Z" transform="translate(-208.591 -158.938)" fill="#b16668"/>
          <path id="Path_146" data-name="Path 146" d="M290.161,330.6c.559.2.683,1.134.708,2.995,0,1.412.3,3.871-1.64,4.278s-4.722.128-5.9-1.23a64.6,64.6,0,0,0-4.585-5.23c-1.839-1.8-3.84-3.486-4.536-5.957-.621-2.235,0-3.208,1.765-3.786s3.392-.107,5.853,1.658a11.559,11.559,0,0,0,2.187.995C285.613,324.82,289.59,330.413,290.161,330.6Z" transform="translate(-206.079 -160.048)" fill="#263238"/>
          <path id="Path_147" data-name="Path 147" d="M288.417,328.563v2.289s-1.777,2.984-6.71,0c-.112-.225-.547-4.642-.547-4.642Z" transform="translate(-204.335 -159.716)" fill="#b16668"/>
          <path id="Path_148" data-name="Path 148" d="M283.36,324.266a11.554,11.554,0,0,1-2.187-.995h0c-1.988-.545-6.213.086-4.287,2.577a21.108,21.108,0,0,0,5.9,5.219c2.237.941,3.02-.235,3.02-.235l-.8-5.347A4.846,4.846,0,0,0,283.36,324.266Z" transform="translate(-205.491 -159.933)" fill="#b16668"/>
          <path id="Path_149" data-name="Path 149" d="M297.523,302.991a47.7,47.7,0,0,0-2.87-11.764s1.678-10.064,2.982-19.732c3.094-22.684,1.031-23.058-2.7-30.94,0,0-33.787-3.743-35.2,8.353-1.752,15.069-.957,44.266-.659,49.613s.8,7.754,2.634,18.951c1.4,8.556,2.734,27.133,2.734,27.133a9.716,9.716,0,0,0,8.7-.374s4.225-22.908,4.138-29.068a45.768,45.768,0,0,0-2.3-13.486s2.87-24.544,3.616-28.448c0,0,.808,7.829,1.106,13.165s1.976,10.481,3.455,20.427c1.243,8.631,3.43,26.641,3.43,26.641,4.424,2.192,7.518,1.2,7.518,1.2S298.5,310.467,297.523,302.991Z" transform="translate(-209.8 -165.705)" fill="#407bff"/>
          <g id="Group_18" data-name="Group 18" transform="translate(48.836 74.304)" opacity="0.4">
            <path id="Path_150" data-name="Path 150" d="M297.523,302.991a47.7,47.7,0,0,0-2.87-11.764s1.678-10.064,2.982-19.732c3.094-22.684,1.031-23.058-2.7-30.94,0,0-33.787-3.743-35.2,8.353-1.752,15.069-.957,44.266-.659,49.613s.8,7.754,2.634,18.951c1.4,8.556,2.734,27.133,2.734,27.133a9.716,9.716,0,0,0,8.7-.374s4.225-22.908,4.138-29.068a45.768,45.768,0,0,0-2.3-13.486s2.87-24.544,3.616-28.448c0,0,.808,7.829,1.106,13.165s1.976,10.481,3.455,20.427c1.243,8.631,3.43,26.641,3.43,26.641,4.424,2.192,7.518,1.2,7.518,1.2S298.5,310.467,297.523,302.991Z" transform="translate(-258.636 -240.008)"/>
          </g>
          <g id="Group_19" data-name="Group 19" transform="translate(68.798 92.904)" opacity="0.15">
            <path id="Path_151" data-name="Path 151" d="M274.7,271.945l1.615-10.609a23.471,23.471,0,0,0,13.122-3.936s-2.212,3.882-11.184,5.572l-1.74,10.919-.646,12.021Q275.421,278.9,274.7,271.945Z" transform="translate(-274.7 -257.4)"/>
          </g>
          <path id="Path_152" data-name="Path 152" d="M295.956,210.235c-1.156-2.93-3.492-4.652-8.7-4.695h-.92c-.36,1.636-6.424,3.123-11.929,1.444-.758.128-3.38.374-4.585.513l-2.622.332c-4,1.134-5.778,7.112-6.213,16.6S259,254.212,259,254.212s8.611,3.968,22.193,2.438c12.153-1.38,17.546-7.54,17.136-6.748a94.547,94.547,0,0,0-6.946-15.229C297.832,221.144,297.658,214.588,295.956,210.235Z" transform="translate(-209.712 -168.099)" fill="#455a64"/>
          <path id="Path_153" data-name="Path 153" d="M271.48,256.123a55.824,55.824,0,0,0,6.735-.342,31.923,31.923,0,0,0,17.123-6.77,91.531,91.531,0,0,0-6.934-15.176c3.231-6.834,4.784-11.893,5.318-15.785-.472,2.8-5.443,13.85-11.78,17.058a11.426,11.426,0,0,1,6.673,4.128C291.685,242.894,289.163,255.343,271.48,256.123Z" transform="translate(-206.684 -167.23)" fill="#37474f"/>
          <path id="Path_154" data-name="Path 154" d="M279.485,207.39c-5.294.577-9.494,1.529-11.805,5.882-3.927,7.379-8.164,13.433-11.258,16.277-3.293,3.037-16.813,8.4-19.882,7.968s-6.089-3.444-7.655-2.663,1.33,3.7,1.143,4.363-5.716.31-8.326-1.283-3.579,1.69-.2,5.1,9.73,3.679,16.614,2.481,19.882-4.278,25.2-8.064c6.412-4.545,8.6-7.989,11.32-12.064C284.542,216.6,279.485,207.39,279.485,207.39Z" transform="translate(-219.336 -167.971)" fill="#b16668"/>
        </g>
      </g>
    </g>
    <g id="freepik--character-2--inject-7" transform="translate(235.707 67.204)">
      <ellipse id="freepik--shadow--inject-7-4" data-name="freepik--shadow--inject-7" cx="38.112" cy="18.93" rx="38.112" ry="18.93" transform="translate(1.467 157.995)" opacity="0.1"/>
      <g id="freepik--character--inject-7-4" data-name="freepik--character--inject-7">
        <path id="Path_155" data-name="Path 155" d="M227.962,95.29c5.741-.107,6.9.973,10.848,7.786,3.181,5.486,7.021,11.967,9.481,14.406,5.405.663,16.515,1.38,20.752.791a3.373,3.373,0,0,0,1.976-.963,18.412,18.412,0,0,1,4.126-2.791c1.243-.749,1.615-1.454,1.951-1.315a1.3,1.3,0,0,1,.5,1.9,10.739,10.739,0,0,1-1.69,1.946,33.671,33.671,0,0,0,5.729-1.369c3.628-1.294,5.579-.449,4.424,3.615-.659,2.31-2.97,4.043-10.2,5.273a50.662,50.662,0,0,1-6.685.749H245.073a7.815,7.815,0,0,1-4.374-2.139c-8.015-8.01-11.917-15.08-15.409-20.256Z" transform="translate(-184.493 -62.841)" fill="#ffbda7"/>
        <path id="Path_156" data-name="Path 156" d="M227.44,95.294c4.424-.246,6.661.107,8.09,2.139,3.355,4.9,10.674,18.759,12.426,19.571,1.379.642,19.783,1.337,19.783,1.337-.907.823-1.3,5.465.41,6.952,0,0-19.584.8-23.324.674-2-.064-3.653-1.176-5.393-2.941s-11.457-11.871-11.457-11.871Z" transform="translate(-183.972 -62.845)" fill="#407bff"/>
        <g id="freepik--character--inject-7-5" data-name="freepik--character--inject-7" transform="translate(14.093 32.31)">
          <path id="Path_157" data-name="Path 157" d="M213.642,124.027c-1.441,1.722-6.213,4.845-8.475,12.331-3.728,12.481,1.354,40.4,1.354,40.4-.2,1.807-.435,4.609-1.417,12.588-1.168,9.422,2.547,34.351,2.547,34.351a8.982,8.982,0,0,0,7.592.364s5.343-36.095,6.822-45.463c1.243-8.171,3.243-26.309,3.243-26.309l5.219,25.186s-.82,4.588-1.243,8.075c-.683,5.508,5.256,33.25,5.256,33.25a10.139,10.139,0,0,0,7.071-.064s2.125-35.293,2.771-41.945c.671-6.834-.186-23.24-1.578-35.934-.41-3.829-1.789-13.967-2.547-17.251Z" transform="translate(-203.8 -93.183)" fill="#37474f"/>
          <path id="Path_158" data-name="Path 158" d="M237.8,215.851c.261,1.4,1.789,4.192,7.158,7.593.982.62,2.684,1.733,3.479,2.139,3.5,1.989,5.145,2.684,4.076,4.15s-3.467,1.9-6.549,1.893a15.436,15.436,0,0,1-8.164-2.834,16.917,16.917,0,0,0-5.865-3.059c-2.187-.492-4.772-1.647-4.971-2.663a9.518,9.518,0,0,1,.211-3.925,12.755,12.755,0,0,0,.522-2.909,60.389,60.389,0,0,0-.5-6.16c-.311-2.449-1.081-5.24,0-5.476l.2,1.069s.932.909,4.287.77a12.158,12.158,0,0,0,4.784-.9l.062-.877s.92-.16.87.738S237.538,214.45,237.8,215.851Z" transform="translate(-198.258 -87.557)" fill="#263238"/>
          <path id="Path_159" data-name="Path 159" d="M215.522,220.249c-.075,1.4,0,2.139,0,4.278a43.2,43.2,0,0,0,.783,7.957c.522,3.208.708,4.941-1.069,8.107s-6.213,1.219-7.742-.642-2.2-3.112-2.05-6.417c.137-2.888.907-4.139,1.019-7.657.112-3.294.4-4.631.36-5.807s-.559-5.486-.683-6.417a1.163,1.163,0,0,1,.447-1.241l.137,1.005s.721,1.123,4.2,1.069,4.623-.941,4.623-.941l.149-.995a1,1,0,0,1,.472,1.155C216.031,214.6,215.609,218.848,215.522,220.249Z" transform="translate(-203.407 -87.014)" fill="#263238"/>
          <path id="Path_160" data-name="Path 160" d="M221.11,151.158l1.392-7.732a25,25,0,0,0,10.612-2.866,14.2,14.2,0,0,1-8.91,4.2l-.895,6.919,2.386,21.625Z" transform="translate(-199.601 -92.006)" fill="#263238"/>
          <path id="Path_161" data-name="Path 161" d="M238.671,116.122c-.162,2.267.41,9.508.41,9.508-10.861,6.2-26.617.417-26.617.417L209.146,113.5s-2.485-11.112,3.728-17.347L219,95.791l10.065-.631,2.982.139a33.747,33.747,0,0,1,8.935,10.139C242.026,107.78,243.517,111.3,238.671,116.122Z" transform="translate(-202.623 -95.16)" fill="#455a64"/>
        </g>
        <path id="Path_162" data-name="Path 162" d="M228.681,94.211h0c-6.847,0-18.95-6.107-18.851-15.678h0c.087-7.625,6.213-13.657,15.061-13.582h1.864a19.262,19.262,0,0,1,9.879,2.535c8.027-.535,12.886,9.283,3.343,12.663C234.385,83.612,228.842,83.014,228.681,94.211Z" transform="translate(-188.245 -64.949)" fill="#263238"/>
        <path id="Path_163" data-name="Path 163" d="M216.089,69.828a4.624,4.624,0,0,0-3.455-.652,9.018,9.018,0,0,0-4.2,1.551,12.01,12.01,0,0,0-4.883,7.2,61.372,61.372,0,0,0-.87,7.839A14.645,14.645,0,0,1,200.2,93.25c-.46.61-1.019,1.369-.6,2.011a1.941,1.941,0,0,0,1.056.631,9.075,9.075,0,0,0,7.046-.77,6.88,6.88,0,0,0,3.728-5.529,14,14,0,0,0-.186-3.989c-.336-3.112-.82-6.417,0-9.529.4-1.519,1.317-3.208,3.38-3.273Z" transform="translate(-190.763 -64.661)" fill="#263238"/>
        <path id="Path_164" data-name="Path 164" d="M214.575,66.116l-1.417,3.529a2.075,2.075,0,0,1-1.288-.9,1.591,1.591,0,0,1-.128-1.427,2.4,2.4,0,0,1,2.833-1.2Z" transform="translate(-187.808 -64.874)" fill="#263238"/>
        <path id="Path_165" data-name="Path 165" d="M211.1,66.54l2.4,3.112a2.381,2.381,0,0,1-1.615.328,2.165,2.165,0,0,1-1.392-.777A1.8,1.8,0,0,1,211.1,66.54Z" transform="translate(-188.171 -64.838)" fill="#263238"/>
        <path id="Path_166" data-name="Path 166" d="M235.647,71.17c1.789.92,3.964,4.823,3.653,12.951-.261,6.9-2.871,8.556-4.188,9.058s-3.815.16-6.213-.214V97.1s3.343,3.4,3.107,5.347-4.9,2.3-8.04.428a19.126,19.126,0,0,1-5.145-4.716l.124-10.695s-1.354,1.208-3.728-.2a3.778,3.778,0,0,1-1.928-2.531,3.383,3.383,0,0,1,.859-2.934,3.59,3.59,0,0,1,2.635-.738,3.328,3.328,0,0,1,2.336,1.283,26.794,26.794,0,0,0,8.5-2.642A15.03,15.03,0,0,0,235.647,71.17Z" transform="translate(-187.42 -64.516)" fill="#ffbda7"/>
        <path id="Path_167" data-name="Path 167" d="M226.712,81.646a.949.949,0,0,1-.969.93,1,1,0,0,1-1.087-.861.965.965,0,0,1,1-.936.976.976,0,0,1,1.056.866Z" transform="translate(-184.648 -63.849)" fill="#263238"/>
        <path id="Path_168" data-name="Path 168" d="M226.635,86.54l3.032.856a1.4,1.4,0,0,1-.763.831,1.794,1.794,0,0,1-1.225.1,1.408,1.408,0,0,1-1.044-1.786Z" transform="translate(-184.185 -63.449)" fill="#f0997a"/>
        <path id="Path_169" data-name="Path 169" d="M233.915,79.281l-2.025-1.251a1.375,1.375,0,0,1,1.69-.278,1.027,1.027,0,0,1,.336,1.529Z" transform="translate(-182.892 -64.071)" fill="#263238"/>
        <path id="Path_170" data-name="Path 170" d="M233.532,81.127a.949.949,0,0,1-.969.93,1.1,1.1,0,0,1-1.033-.5.812.812,0,0,1,.16-1.011,1.175,1.175,0,0,1,1.151-.246A.931.931,0,0,1,233.532,81.127Z" transform="translate(-183.006 -63.886)" fill="#263238"/>
        <path id="Path_171" data-name="Path 171" d="M228.62,80.56l.112,5.219,3.194-.824Z" transform="translate(-183.685 -63.864)" fill="#f0997a"/>
        <path id="Path_172" data-name="Path 172" d="M227.508,91.775c-2.585-.31-7.866-1.658-8.7-3.465a4.68,4.68,0,0,0,1.839,2.31c1.566,1.176,6.81,2.535,6.81,2.535Z" transform="translate(-186.066 -63.326)" fill="#f0997a"/>
        <path id="Path_173" data-name="Path 173" d="M193.15,125.365c1.727-5.583,8.935-17.775,11-22.256A10.959,10.959,0,0,1,214.722,96.2c1.553,1.754,2.112,10.5-2.771,15.475-2.1,3.711-8.375,14.1-8.375,14.1.149,1.005,4.312,14.031,6.114,17.465a3.029,3.029,0,0,0,1.615,1.348,32.7,32.7,0,0,1,5.617,3.572c1.18.8,2.088.93,2,1.241a1.787,1.787,0,0,1-2.063.92,30.381,30.381,0,0,1-3.728-1.337,40.841,40.841,0,0,0,3.728,4.47c2.485,2.556,2.485,4.738-2.56,4.77-3.728,0-5.741-1.829-9.034-7.422-.944-1.6-2.386-3.989-3.517-6.064-2.858-5.23-4.262-7.486-5.816-10.78C193.436,128.68,192.491,127.525,193.15,125.365Z" transform="translate(-192.341 -62.777)" fill="#ffbda7"/>
        <path id="Path_174" data-name="Path 174" d="M204.216,125.833l8.413-13.711a22.01,22.01,0,0,0,4.126-16.042c-4.722-.086-8.214.257-10.972,3.679s-11.73,22.363-12.687,24.694-.77,2.855.149,4.92c2.025,4.214,8.885,15.892,8.885,15.892.435-2.545,4.374-4.706,6.623-4.428Z" transform="translate(-192.459 -62.786)" fill="#407bff"/>
      </g>
    </g>
    <g id="freepik--character-1--inject-7" transform="translate(129.366 108.435)">
      <ellipse id="freepik--shadow--inject-7-5" data-name="freepik--shadow--inject-7" cx="39.503" cy="19.636" rx="39.503" ry="19.636" transform="translate(11.305 159.447)" opacity="0.1"/>
      <g id="freepik--character--inject-7-6" data-name="freepik--character--inject-7">
        <path id="Path_175" data-name="Path 175" d="M188.732,128.332c-1.243-8.353-7.655-8-9.32-7.807-1.9.235-2.771,1.4-1.566,5.871a13.48,13.48,0,0,1,.435,3.059c0,.438.249,1.358-.174,1.7-.646.513-1.665-1.005-1.963-1.39a2.953,2.953,0,0,0-1.827-1.337.847.847,0,0,0-.82.225.756.756,0,0,0,0,.674,22.151,22.151,0,0,0,2.622,5.882,13.238,13.238,0,0,1,1.243,2.2,3.749,3.749,0,0,1-.385,3.208c-.236.492-.485.973-.721,1.454l-5.281,9.743s-9.941-10.064-12.575-12.566c-3.442-3.208-5.816-3.818-11.01-3.818l6.474,20.074s4.449,3.626,9.568,7.486c7.953,6.043,10.587,5.486,12.513,4.93s3.877-3.5,5.418-8.149c2.274-6.813,4.585-15.978,4.585-15.978h0c.3-.834.559-1.615.758-2.3C187.577,138.363,189.254,131.733,188.732,128.332Z" transform="translate(-97.054 -102.323)" fill="#ffa8a7"/>
        <path id="Path_176" data-name="Path 176" d="M167,149.819c-1.939,2.984-2.846,3.893-2.933,8.556a13.314,13.314,0,0,1-.311-4.973,7.763,7.763,0,0,1,2.1-4.8Z" transform="translate(-93.107 -100.368)" fill="#f28f8f"/>
        <path id="Path_177" data-name="Path 177" d="M146.64,134.383c3.256-.139,7.033,0,9.158,1.444a57.007,57.007,0,0,1,7.083,6.342c1.9,1.85,7.381,7.6,7.381,7.6a19.147,19.147,0,0,0-7.083,12.363l-15.632-13.187Z" transform="translate(-97.236 -101.358)" fill="#37474f"/>
        <path id="Path_178" data-name="Path 178" d="M124.241,268.341l7.978-.182,1.839-14.951-10.078-.118Z" transform="translate(-102.734 -93.108)" fill="#ffa8a7"/>
        <path id="Path_179" data-name="Path 179" d="M148.772,260.64c1.417,2,5.766,1.733,9.382.93V246.918l-10.674-.128Z" transform="translate(-97.032 -93.546)" fill="#ffa8a7"/>
        <path id="Path_180" data-name="Path 180" d="M126.1,179.326c-.087,6.342-.385,43.324-.385,43.324-.211,1.829-2.3,5.048-2.56,11.625-.373,9.529.944,30.416.944,30.416a14.611,14.611,0,0,0,9.506.267s5.679-30.138,7.207-39.571c1.33-8.224,5.095-29.742,5.095-29.742l4.8,28.063a40.8,40.8,0,0,0-.584,10.128c.3,4.363,3.852,25.55,3.852,25.55a20.4,20.4,0,0,0,10.2,0s1.379-33.036,1.528-37.047c.162-4.567-1.243-44.8-1.243-44.8Z" transform="translate(-102.951 -98.357)" fill="#407bff"/>
        <g id="Group_20" data-name="Group 20" transform="translate(20.136 79.183)" opacity="0.4">
          <path id="Path_181" data-name="Path 181" d="M126.1,179.326c-.087,6.342-.385,43.324-.385,43.324-.211,1.829-2.3,5.048-2.56,11.625-.373,9.529.944,30.416.944,30.416a14.611,14.611,0,0,0,9.506.267s5.679-30.138,7.207-39.571c1.33-8.224,5.095-29.742,5.095-29.742l4.8,28.063a40.8,40.8,0,0,0-.584,10.128c.3,4.363,3.852,25.55,3.852,25.55a20.4,20.4,0,0,0,10.2,0s1.379-33.036,1.528-37.047c.162-4.567-1.243-44.8-1.243-44.8Z" transform="translate(-123.087 -177.54)"/>
        </g>
        <g id="Group_21" data-name="Group 21" transform="translate(42.955 91.685)" opacity="0.2">
          <path id="Path_182" data-name="Path 182" d="M141.45,194.845a35.83,35.83,0,0,0,11.556-5.615s-2.125,3.326-8.338,6.417l1.106,24.6Z" transform="translate(-141.45 -189.23)"/>
        </g>
        <path id="Path_183" data-name="Path 183" d="M142.06,279.34a2.729,2.729,0,0,1-.137,2.139,8.37,8.37,0,0,1-5.455,1.9,15.086,15.086,0,0,1-7.779-1.262,4.721,4.721,0,0,1-2.858-3.7c-.162-1.54,0-3.027-.77-4.224s-2.013-2.353-2.274-2.952a5.259,5.259,0,0,1,0-3.144Z" transform="translate(-103.082 -92.065)" fill="#263238"/>
        <path id="Path_184" data-name="Path 184" d="M133.651,266.124a5.182,5.182,0,0,0,.335,1.722,14.935,14.935,0,0,0,1.876,3.412,12.661,12.661,0,0,0,1.243,1.6c.932.984,2.1,1.8,3.094,2.749a5.259,5.259,0,0,1,1.889,3.347c.1,2.139-2.585,2.813-4.647,3.1a17.416,17.416,0,0,1-6.7-.364,5.714,5.714,0,0,1-4.449-4.278c-.1-.588,0-1.2-.124-1.786a7.7,7.7,0,0,0-1.864-3.732,11.279,11.279,0,0,1-1.441-2.043c-.621-1.315-.087-2.791.348-4.1.373-1.134.783-2.406,1.243-2.289,0,.588,0,.642.485,1.069s.621,1.262,1.243,1.711a6.647,6.647,0,0,1-.435-1.508.742.742,0,0,1,.149-.6,2.034,2.034,0,0,1,.758-.342,17.841,17.841,0,0,1,3.007-.556,10.275,10.275,0,0,1,2.92,0,1.294,1.294,0,0,1,.733.374,1.082,1.082,0,0,1,.249.727A9.438,9.438,0,0,1,133.651,266.124Z" transform="translate(-103.073 -92.41)" fill="#455a64"/>
        <path id="Path_185" data-name="Path 185" d="M135.181,271.263a8.153,8.153,0,0,0-4.088-.545,7.784,7.784,0,0,0-3.218.93.808.808,0,0,1-.944-.075h0a.544.544,0,0,1-.2-.467.577.577,0,0,1,.287-.432,7.639,7.639,0,0,1,3.616-1.069,8.315,8.315,0,0,1,3.579.278S135.466,270.557,135.181,271.263Z" transform="translate(-102.067 -91.966)" fill="#f5f5f5"/>
        <path id="Path_186" data-name="Path 186" d="M136.919,273.319a10.011,10.011,0,0,0-4.536-.449,6.862,6.862,0,0,0-3.119.984.838.838,0,0,1-.944-.075h0a.554.554,0,0,1-.2-.472.586.586,0,0,1,.287-.437,7.932,7.932,0,0,1,3.728-1.2c2.771-.139,3.492.364,3.492.364a2.055,2.055,0,0,1,1.292,1.283Z" transform="translate(-101.73 -91.819)" fill="#f5f5f5"/>
        <path id="Path_187" data-name="Path 187" d="M129.739,267.425a7.937,7.937,0,0,1,3.479.289c.485.246.8.909.485,1.069a7.5,7.5,0,0,0-3.082-.4,10.6,10.6,0,0,0-3.007.674l-.77.332a.706.706,0,0,1-.833-.278h0a.489.489,0,0,1,.249-.674,9.68,9.68,0,0,1,3.479-1.016Z" transform="translate(-102.255 -92.118)" fill="#f5f5f5"/>
        <path id="Path_188" data-name="Path 188" d="M176.743,267.888a2.273,2.273,0,0,1,0,1.914c-.261.567-3.5,2.428-8.077,2.449A21.383,21.383,0,0,1,159,270.016a12.393,12.393,0,0,0-5.915-.909c-2.262,0-5.306-.749-5.878-1.626a3.759,3.759,0,0,1-.137-2.481Z" transform="translate(-97.168 -92.281)" fill="#263238"/>
        <path id="Path_189" data-name="Path 189" d="M157.319,257.36l.36-.086a1.63,1.63,0,0,1,.6-.064,1.215,1.215,0,0,1,.6.289,10.441,10.441,0,0,1,1.243,1.5,13.708,13.708,0,0,0,5.455,3.134c1.541.6,3.044,1.069,4.635,1.54a41.083,41.083,0,0,1,4.971,1.38,2.821,2.821,0,0,1,1.62,2.244,2.679,2.679,0,0,1-1.234,2.419,18.472,18.472,0,0,1-11.184,1.39c-2.7-.481-5.84-2.727-9.332-2.738-2.212,0-6.424-.278-7.978-1.626-.572-.6,0-2.674.373-4.46s.137-4.845,1.143-4.834l.1.973c.1.289.895.545,1.156.77l.92.791a4.3,4.3,0,0,0,1.342.888,5.069,5.069,0,0,0,2.87-.139s-.522-1.476-.572-1.615a.538.538,0,0,1,0-.364.527.527,0,0,1,.249-.289,7.7,7.7,0,0,1,2.672-1.1Z" transform="translate(-97.191 -92.822)" fill="#455a64"/>
        <path id="Path_190" data-name="Path 190" d="M161.333,261.054a2.165,2.165,0,0,0-1.715-.834,6.355,6.355,0,0,0-3.728,1.508.649.649,0,0,0-.245.629.731.731,0,0,0,.469.526h0a.919.919,0,0,0,.932-.15,6.693,6.693,0,0,1,4.287-1.679Z" transform="translate(-95.054 -92.613)" fill="#f5f5f5"/>
        <path id="Path_191" data-name="Path 191" d="M164.064,262.238a2.55,2.55,0,0,0-2-.738,8.042,8.042,0,0,0-4.126,1.636.638.638,0,0,0-.233.609.716.716,0,0,0,.445.514h0a.847.847,0,0,0,.895-.15,6.888,6.888,0,0,1,5.02-1.871Z" transform="translate(-94.554 -92.524)" fill="#f5f5f5"/>
        <path id="Path_192" data-name="Path 192" d="M166.9,263.293a2.92,2.92,0,0,0-2.075-.652,7.57,7.57,0,0,0-3.939,1.636.648.648,0,0,0-.233.614.725.725,0,0,0,.444.52h0a.905.905,0,0,0,.895-.15,6.414,6.414,0,0,1,4.908-1.968Z" transform="translate(-93.838 -92.445)" fill="#f5f5f5"/>
        <path id="Path_193" data-name="Path 193" d="M140.987,134.625c-2.945.235-6.424.342-9.233.62-3.616.353-6.5,3.519-7.456,8.481-1.081,5.465,2.647,21.24,2.647,21.24l-1.727,18.513c5.231,3.433,27.723,5.54,39.106-1.262,0,0,.385-31.539-.385-36.362-1.081-6.674-2.87-10.844-11.594-11.454Z" transform="translate(-102.704 -101.354)" fill="#455a64"/>
        <path id="Path_194" data-name="Path 194" d="M110.421,173.694s6.288,8,9.941,11.561c2.56,2.47,8.152,7.572,11.78,9.144,9,3.9,12.352-.941,13.122-2.278.882-1.529.224-2.834-4.884-4.556a19.358,19.358,0,0,1-3.268-1.465c-.522-.289-2.224-.995-1.367-1.626a2.053,2.053,0,0,1,.969-.289l2.411-.3a3.64,3.64,0,0,0,1.5-.428.858.858,0,0,0,.36-1.2,1.729,1.729,0,0,0-1.243-.438c-2.8-.214-5.6-.321-8.413-.342-.572,0-1.553.2-2.025-.064a4.377,4.377,0,0,1-.746-.631c-.4-.481-.77-.973-1.156-1.476-1.019-1.326-2.013-2.674-3.007-4.021-1.367-1.85-3.728-5.732-5.045-7.593l12.923-16.042s5.418-6.171,3.02-16.042c0,0-5.691,0-9.1,2.866s-18.316,23.635-19.037,26.02S106.954,169.181,110.421,173.694Z" transform="translate(-106.882 -101.27)" fill="#ffa8a7"/>
        <path id="Path_195" data-name="Path 195" d="M122.9,163.627l7.182-8.855a15.514,15.514,0,0,0,5.343-7.743c1.243-5.347.522-10.631-.447-11.839-10.525.364-9.854,2.032-16.875,11.369-2.709,3.6-4.647,6.47-7.282,10.171a16.252,16.252,0,0,0,12.078,6.9Z" transform="translate(-105.927 -101.299)" fill="#37474f"/>
        <path id="Path_196" data-name="Path 196" d="M132.19,120.62s2.485,6.513,3.33,7.861a3.076,3.076,0,0,0,2.423,1.508V125.3Z" transform="translate(-100.742 -102.311)" fill="#263238"/>
        <path id="Path_197" data-name="Path 197" d="M136.42,110.811a4.621,4.621,0,0,0-4.859,1.529c-1.094,1.4-1.417,4.588,2.485,12.31l3.206-2.93Z" transform="translate(-101.07 -103.004)" fill="#263238"/>
        <path id="Path_198" data-name="Path 198" d="M137.868,121.9a3.948,3.948,0,0,0-1.342-1.8,3.8,3.8,0,0,0-2.827-.621,3.389,3.389,0,0,0-2.342,1.5c-1.354,2.3,1.106,5.133,2.933,6a3.012,3.012,0,0,0,3.653-.5l.273,10.577h0c1.131,2.139,6.052,3.914,8.922,3.529,2.3-.3,4.374-1.914,2.249-4.128l.075-3.027a24.947,24.947,0,0,0,4.61.3,5.951,5.951,0,0,0,4.971-4.278c1.33-3.754,1.876-6.78,1.031-14.213-.92-8.149-11.892-8.449-17.906-5.347S137.868,121.9,137.868,121.9Z" transform="translate(-101.039 -103.183)" fill="#ffa8a7"/>
        <path id="Path_199" data-name="Path 199" d="M162.7,107.136a2.949,2.949,0,0,0-1.131-2.995c-1.243-.952-3.268-.706-5.207-.15a23.43,23.43,0,0,1-8.984,1.529c-2.672,0-6.213-.428-8.835.7-3.02,1.283-4.138,2.8-4.3,4.62-.062.578.584,1.069.758,1.615a3.7,3.7,0,0,1,.373,1.508c-.112.909-.311,1.807-.422,2.706a17.154,17.154,0,0,0-.174,2.642,1.419,1.419,0,0,0,.783,1.069,4.144,4.144,0,0,1,1.354,1.6c.236.374.472,1.326.92,1.572,1.342.77,1.4-1.818,1.454-2.31a23.435,23.435,0,0,0-.124-3.433,5.1,5.1,0,0,0,3.479-1.476,3.286,3.286,0,0,0,.82-1.7,4.966,4.966,0,0,0,.075-1.069,6.787,6.787,0,0,0,4.449,1.3,4.94,4.94,0,0,0,3.852-1.529,5.987,5.987,0,0,0,1.976,1.54,8.365,8.365,0,0,0,4.312.449,4.341,4.341,0,0,0,3.194-2.139,3.169,3.169,0,0,0-.472-3.668,3.972,3.972,0,0,0,1.852-2.385Z" transform="translate(-100.245 -103.501)" fill="#263238"/>
        <path id="Path_200" data-name="Path 200" d="M135.088,111.473l-3.728-1.829a2.051,2.051,0,0,1,1.26-.91,2.4,2.4,0,0,1,1.635.151,1.814,1.814,0,0,1,.833,2.588Z" transform="translate(-100.943 -103.143)" fill="#263238"/>
        <path id="Path_201" data-name="Path 201" d="M147.842,132.1a47.863,47.863,0,0,1-7.543-2.021,6.2,6.2,0,0,1-2.659-2.364,7.3,7.3,0,0,0,1.479,2.759c1.392,1.6,8.7,2.92,8.7,2.92Z" transform="translate(-99.42 -101.818)" fill="#f28f8f"/>
        <path id="Path_202" data-name="Path 202" d="M145.78,120.566a1.221,1.221,0,0,1-2.423,0,1,1,0,0,1,.5-1.139,1.411,1.411,0,0,1,1.414,0,1,1,0,0,1,.5,1.139Z" transform="translate(-98.041 -102.407)" fill="#263238"/>
        <path id="Path_203" data-name="Path 203" d="M144.915,117.214l-2.485,1.134a1.192,1.192,0,0,1,.634-1.69,1.57,1.57,0,0,1,1.062-.059A1.315,1.315,0,0,1,144.915,117.214Z" transform="translate(-98.295 -102.595)" fill="#263238"/>
        <path id="Path_204" data-name="Path 204" d="M145.3,126l3.616,1.251a1.755,1.755,0,0,1-1,.946,2.186,2.186,0,0,1-1.485.038A1.674,1.674,0,0,1,145.3,126Z" transform="translate(-97.594 -101.938)" fill="#f28f8f"/>
        <path id="Path_205" data-name="Path 205" d="M153.824,117.933l-2.224-1.551a1.418,1.418,0,0,1,.931-.48,1.527,1.527,0,0,1,1.044.256,1.174,1.174,0,0,1,.249,1.775Z" transform="translate(-96.032 -102.64)" fill="#263238"/>
        <path id="Path_206" data-name="Path 206" d="M153.4,120.159a1.166,1.166,0,0,1-1.243,1.069,1.149,1.149,0,0,1-1.143-1.069,1.166,1.166,0,0,1,1.243-1.069,1.148,1.148,0,0,1,1.143,1.069Z" transform="translate(-96.175 -102.418)" fill="#263238"/>
        <path id="Path_207" data-name="Path 207" d="M148.26,119.1l.224,6.331,3.865-1.059Z" transform="translate(-96.843 -102.417)" fill="#f28f8f"/>
      </g>
    </g>
    <g id="freepik--speech-bubbles--inject-7" transform="translate(125.088 32.48)">
      <g id="freepik--speech-bubble--inject-7" transform="translate(0 28.884)">
        <path id="Path_208" data-name="Path 208" d="M105.739,113.049l-1.69-.834a1.153,1.153,0,0,1-.609-.92V83.168a1.153,1.153,0,0,1,.609-.92l45.48-22.63a1.536,1.536,0,0,1,1.243,0l1.678.834a1.157,1.157,0,0,1,.621.92V89.5a1.126,1.126,0,0,1-.621.92l-45.468,22.63a1.536,1.536,0,0,1-1.243,0Z" transform="translate(-103.44 -59.487)" fill="#407bff"/>
        <g id="Group_22" data-name="Group 22" transform="translate(0)" opacity="0.4">
          <path id="Path_209" data-name="Path 209" d="M105.739,113.049l-1.69-.834a1.153,1.153,0,0,1-.609-.92V83.168a1.153,1.153,0,0,1,.609-.92l45.48-22.63a1.536,1.536,0,0,1,1.243,0l1.678.834a1.157,1.157,0,0,1,.621.92V89.5a1.126,1.126,0,0,1-.621.92l-45.468,22.63a1.536,1.536,0,0,1-1.243,0Z" transform="translate(-103.44 -59.487)" fill="#fff"/>
        </g>
        <path id="Path_210" data-name="Path 210" d="M106.4,83.592,151.869,61c.348-.171.621,0,.621.3V89.431a1.126,1.126,0,0,1-.621.92L106.4,112.981c-.336.171-.621,0-.621-.31V84.533a1.184,1.184,0,0,1,.621-.941Z" transform="translate(-102.872 -59.387)" fill="#407bff"/>
        <path id="Path_211" data-name="Path 211" d="M106.832,111.6a1.569,1.569,0,0,1-1.106-.053l-1.665-.834a1.157,1.157,0,0,1-.621-.92V81.664a.961.961,0,0,1,.174-.524l2.92,1.444a1.033,1.033,0,0,0-.186.524v28.127A.351.351,0,0,0,106.832,111.6Z" transform="translate(-103.44 -57.983)" fill="#407bff"/>
        <g id="Group_23" data-name="Group 23" transform="translate(0 23.157)" opacity="0.15">
          <path id="Path_212" data-name="Path 212" d="M106.832,111.6a1.569,1.569,0,0,1-1.106-.053l-1.665-.834a1.157,1.157,0,0,1-.621-.92V81.664a.961.961,0,0,1,.174-.524l2.92,1.444a1.033,1.033,0,0,0-.186.524v28.127A.351.351,0,0,0,106.832,111.6Z" transform="translate(-103.44 -81.14)"/>
        </g>
        <path id="Path_213" data-name="Path 213" d="M111.351,87.977l33.365-16.609c.572-.289,1.031-.086,1.031.449a1.9,1.9,0,0,1-1.031,1.476L111.351,89.9c-.572.289-1.031.086-1.031-.449A1.9,1.9,0,0,1,111.351,87.977Z" transform="translate(-101.771 -58.671)" fill="#f5f5f5"/>
        <path id="Path_214" data-name="Path 214" d="M111.351,93.808l33.365-16.62c.572-.289,1.031-.086,1.031.449a1.879,1.879,0,0,1-1.031,1.5L111.351,95.723c-.572.289-1.031.086-1.031-.449a1.865,1.865,0,0,1,1.031-1.465Z" transform="translate(-101.771 -58.267)" fill="#f5f5f5"/>
        <path id="Path_215" data-name="Path 215" d="M134.74,93.1l.683,4.93a.582.582,0,0,1-.314.579.807.807,0,0,1-.742.02l-5.468-2.7Z" transform="translate(-97.263 -57.152)" fill="#407bff"/>
        <g id="freepik--Check--inject-7" transform="translate(33.874 26.618)">
          <path id="Path_216" data-name="Path 216" d="M136.342,84.434a.814.814,0,0,0-.545-.02.678.678,0,0,0-.4.319l-2.9,5.444-.621-.556a.809.809,0,0,0-.96.031.559.559,0,0,0-.071.825l1.342,1.2a.832.832,0,0,0,.5.193h.137a.69.69,0,0,0,.534-.353l3.33-6.256a.524.524,0,0,0,.034-.477A.648.648,0,0,0,136.342,84.434Z" transform="translate(-130.7 -84.376)" fill="#455a64"/>
        </g>
        <g id="freepik--check--inject-7-2" data-name="freepik--check--inject-7" transform="translate(39.982 23.766)">
          <path id="Path_217" data-name="Path 217" d="M141.3,81.764a.774.774,0,0,0-.944.3l-2.9,5.444-.621-.556a.821.821,0,0,0-1.019,0,.56.56,0,0,0,0,.866l1.342,1.209a.809.809,0,0,0,.5.182h.137a.707.707,0,0,0,.534-.342l3.33-6.267a.524.524,0,0,0,.036-.486A.652.652,0,0,0,141.3,81.764Z" transform="translate(-135.615 -81.709)" fill="#455a64"/>
        </g>
      </g>
      <g id="freepik--speech-bubble--inject-7-2" data-name="freepik--speech-bubble--inject-7" transform="translate(328.142 45.557)">
        <path id="Path_218" data-name="Path 218" d="M369.809,128.639l-1.69-.845a1.133,1.133,0,0,1-.609-.92V98.748a1.174,1.174,0,0,1,.609-.92L413.6,75.209a1.536,1.536,0,0,1,1.243,0l1.678.834a1.126,1.126,0,0,1,.621.92V105.09a1.157,1.157,0,0,1-.621.92l-45.468,22.63a1.639,1.639,0,0,1-1.243,0Z" transform="translate(-367.51 -75.077)" fill="#407bff"/>
        <g id="Group_24" data-name="Group 24" transform="translate(0)" opacity="0.4">
          <path id="Path_219" data-name="Path 219" d="M369.809,128.639l-1.69-.845a1.133,1.133,0,0,1-.609-.92V98.748a1.174,1.174,0,0,1,.609-.92L413.6,75.209a1.536,1.536,0,0,1,1.243,0l1.678.834a1.126,1.126,0,0,1,.621.92V105.09a1.157,1.157,0,0,1-.621.92l-45.468,22.63a1.639,1.639,0,0,1-1.243,0Z" transform="translate(-367.51 -75.077)" fill="#fff"/>
        </g>
        <path id="Path_220" data-name="Path 220" d="M370.471,99.184l45.468-22.63c.348-.171.621,0,.621.31v28.127a1.157,1.157,0,0,1-.621.92l-45.468,22.63c-.335.16-.621,0-.621-.31V100.1a1.168,1.168,0,0,1,.621-.92Z" transform="translate(-366.942 -74.979)" fill="#407bff"/>
        <path id="Path_221" data-name="Path 221" d="M377,120.234v4.93a.826.826,0,0,0,.651.758,1.019,1.019,0,0,0,1.039-.3l8.363-10.385Z" transform="translate(-365.207 -72.287)" fill="#407bff"/>
        <path id="Path_222" data-name="Path 222" d="M370.9,127.189a1.568,1.568,0,0,1-1.106-.064l-1.665-.823a1.155,1.155,0,0,1-.621-.93V97.255a1.008,1.008,0,0,1,.174-.535l2.92,1.454a.966.966,0,0,0-.186.524v28.127C370.418,127.114,370.6,127.253,370.9,127.189Z" transform="translate(-367.51 -73.574)" fill="#407bff"/>
        <g id="Group_25" data-name="Group 25" transform="translate(0 23.146)" opacity="0.15">
          <path id="Path_223" data-name="Path 223" d="M370.9,127.189a1.568,1.568,0,0,1-1.106-.064l-1.665-.823a1.155,1.155,0,0,1-.621-.93V97.255a1.008,1.008,0,0,1,.174-.535l2.92,1.454a.966.966,0,0,0-.186.524v28.127C370.418,127.114,370.6,127.253,370.9,127.189Z" transform="translate(-367.51 -96.72)"/>
        </g>
        <path id="Path_224" data-name="Path 224" d="M375.421,103.568,408.8,86.948c.572-.278,1.031-.075,1.031.449a1.873,1.873,0,0,1-1.031,1.476l-33.377,16.62c-.572.278-1.031.075-1.031-.449A1.873,1.873,0,0,1,375.421,103.568Z" transform="translate(-365.841 -74.261)" fill="#f5f5f5"/>
        <path id="Path_225" data-name="Path 225" d="M375.421,109.388,408.8,92.768c.572-.278,1.031-.075,1.031.449a1.873,1.873,0,0,1-1.031,1.476l-33.377,16.62c-.572.278-1.031.086-1.031-.449a1.883,1.883,0,0,1,1.031-1.476Z" transform="translate(-365.841 -73.857)" fill="#f5f5f5"/>
        <g id="freepik--check--inject-7-3" data-name="freepik--check--inject-7" transform="translate(33.831 26.602)">
          <path id="Path_226" data-name="Path 226" d="M400.42,100a.772.772,0,0,0-.944.31l-2.9,5.444-.634-.556a.791.791,0,0,0-1.007,0,.56.56,0,0,0,0,.866l1.342,1.208a.755.755,0,0,0,.5.182h.137a.753.753,0,0,0,.534-.353l3.33-6.267a.533.533,0,0,0,.03-.484.661.661,0,0,0-.39-.35Z" transform="translate(-394.735 -99.951)" fill="#455a64"/>
        </g>
        <g id="freepik--check--inject-7-4" data-name="freepik--check--inject-7" transform="translate(39.982 23.759)">
          <path id="Path_227" data-name="Path 227" d="M405.37,97.354a.8.8,0,0,0-.547-.024.663.663,0,0,0-.4.324l-2.9,5.444-.634-.556a.791.791,0,0,0-1.007,0,.56.56,0,0,0,0,.866l1.342,1.2a.832.832,0,0,0,.5.192h.137a.715.715,0,0,0,.534-.353l3.33-6.256a.524.524,0,0,0,.036-.486.652.652,0,0,0-.4-.348Z" transform="translate(-399.685 -97.293)" fill="#455a64"/>
        </g>
      </g>
      <g id="freepik--speech-bubble--inject-7-3" data-name="freepik--speech-bubble--inject-7" transform="translate(203.879 107.531)">
        <path id="Path_228" data-name="Path 228" d="M269.809,165.671l-1.678-.834a1.157,1.157,0,0,1-.621-.92V150.11a1.137,1.137,0,0,1,.621-.92l32.209-16.042a1.639,1.639,0,0,1,1.243,0l1.678.834a1.155,1.155,0,0,1,.621.93v13.839a1.155,1.155,0,0,1-.621.93l-32.2,16.042a1.564,1.564,0,0,1-1.255-.053Z" transform="translate(-267.51 -133.026)" fill="#407bff"/>
        <g id="Group_26" data-name="Group 26" opacity="0.4">
          <path id="Path_229" data-name="Path 229" d="M269.809,165.671l-1.678-.834a1.157,1.157,0,0,1-.621-.92V150.11a1.137,1.137,0,0,1,.621-.92l32.209-16.042a1.639,1.639,0,0,1,1.243,0l1.678.834a1.155,1.155,0,0,1,.621.93v13.839a1.155,1.155,0,0,1-.621.93l-32.2,16.042a1.564,1.564,0,0,1-1.255-.053Z" transform="translate(-267.51 -133.026)" fill="#fff"/>
        </g>
        <path id="Path_230" data-name="Path 230" d="M270.481,150.5l32.2-16.042c.348-.171.621,0,.621.31V148.6a1.155,1.155,0,0,1-.621.93l-32.2,16.042c-.348.171-.621,0-.621-.31v-13.85a1.157,1.157,0,0,1,.621-.92Z" transform="translate(-266.94 -132.931)" fill="#407bff"/>
        <path id="Path_231" data-name="Path 231" d="M277,158.624v4.941a.812.812,0,0,0,.648.774,1,1,0,0,0,1.042-.324l8.363-10.385Z" transform="translate(-265.207 -131.594)" fill="#407bff"/>
        <path id="Path_232" data-name="Path 232" d="M270.9,164.648a1.6,1.6,0,0,1-1.094,0l-1.678-.834a1.157,1.157,0,0,1-.621-.92v-13.86a.9.9,0,0,1,.186-.524l2.908,1.444a.962.962,0,0,0-.174.524v13.85C270.43,164.574,270.6,164.723,270.9,164.648Z" transform="translate(-267.51 -131.95)" fill="#407bff"/>
        <g id="Group_27" data-name="Group 27" transform="translate(0 16.56)" opacity="0.15">
          <path id="Path_233" data-name="Path 233" d="M270.9,164.648a1.6,1.6,0,0,1-1.094,0l-1.678-.834a1.157,1.157,0,0,1-.621-.92v-13.86a.9.9,0,0,1,.186-.524l2.908,1.444a.962.962,0,0,0-.174.524v13.85C270.43,164.574,270.6,164.723,270.9,164.648Z" transform="translate(-267.51 -148.51)"/>
        </g>
        <path id="Path_234" data-name="Path 234" d="M277.26,150.786c1.168-.577,2.1-.107,2.1,1.069a3.909,3.909,0,0,1-2.1,3.134c-1.156.577-2.1.107-2.1-1.069a3.94,3.94,0,0,1,2.1-3.134Z" transform="translate(-265.654 -131.809)" fill="#fafafa"/>
        <path id="Path_235" data-name="Path 235" d="M283.718,147.076c1.168-.578,2.1-.107,2.1,1.069a3.909,3.909,0,0,1-2.1,3.134c-1.156.567-2.088.107-2.088-1.069a3.926,3.926,0,0,1,2.088-3.134Z" transform="translate(-264.084 -132.067)" fill="#fafafa"/>
        <path id="Path_236" data-name="Path 236" d="M290.19,143.376c1.156-.578,2.1-.107,2.1,1.069a3.94,3.94,0,0,1-2.1,3.134c-1.168.578-2.1.107-2.1-1.069a3.909,3.909,0,0,1,2.1-3.134Z" transform="translate(-262.517 -132.324)" fill="#fafafa"/>
      </g>
      <g id="freepik--speech-bubble--inject-7-4" data-name="freepik--speech-bubble--inject-7" transform="translate(186.47)">
        <path id="Path_237" data-name="Path 237" d="M255.849,86.039l-1.727-.834a1.155,1.155,0,0,1-.621-.93V56.158a1.155,1.155,0,0,1,.621-.93l45.518-22.619a1.566,1.566,0,0,1,1.243,0l1.678.834a1.168,1.168,0,0,1,.621.92V62.489a1.168,1.168,0,0,1-.621.92l-45.468,22.63a1.566,1.566,0,0,1-1.243,0Z" transform="translate(-253.5 -32.48)" fill="#407bff"/>
        <g id="Group_28" data-name="Group 28" opacity="0.4">
          <path id="Path_238" data-name="Path 238" d="M255.849,86.039l-1.727-.834a1.155,1.155,0,0,1-.621-.93V56.158a1.155,1.155,0,0,1,.621-.93l45.518-22.619a1.566,1.566,0,0,1,1.243,0l1.678.834a1.168,1.168,0,0,1,.621.92V62.489a1.168,1.168,0,0,1-.621.92l-45.468,22.63a1.566,1.566,0,0,1-1.243,0Z" transform="translate(-253.5 -32.48)" fill="#fff"/>
        </g>
        <path id="Path_239" data-name="Path 239" d="M256.511,56.581,302,34c.336-.171.621,0,.621.31V62.442a1.168,1.168,0,0,1-.621.92L256.511,85.938c-.348.171-.621,0-.621-.31v-28.1a1.131,1.131,0,0,1,.621-.952Z" transform="translate(-252.92 -32.379)" fill="#407bff"/>
        <path id="Path_240" data-name="Path 240" d="M263,77.634v4.941a.827.827,0,0,0,.659.765,1.015,1.015,0,0,0,1.044-.316l8.363-10.385Z" transform="translate(-251.195 -29.69)" fill="#407bff"/>
        <path id="Path_241" data-name="Path 241" d="M256.942,84.589a1.6,1.6,0,0,1-1.094,0l-1.727-.888a1.157,1.157,0,0,1-.621-.92V54.654a.966.966,0,0,1,.186-.524l2.92,1.444a.961.961,0,0,0-.174.524V84.225A.383.383,0,0,0,256.942,84.589Z" transform="translate(-253.5 -30.976)" fill="#407bff"/>
        <g id="Group_29" data-name="Group 29" transform="translate(0 23.154)" opacity="0.15">
          <path id="Path_242" data-name="Path 242" d="M256.942,84.589a1.6,1.6,0,0,1-1.094,0l-1.727-.888a1.157,1.157,0,0,1-.621-.92V54.654a.966.966,0,0,1,.186-.524l2.92,1.444a.961.961,0,0,0-.174.524V84.225A.383.383,0,0,0,256.942,84.589Z" transform="translate(-253.5 -54.13)"/>
        </g>
        <path id="Path_243" data-name="Path 243" d="M261.451,60.968l33.377-16.62c.572-.278,1.031-.075,1.031.449a1.873,1.873,0,0,1-1.031,1.476l-33.377,16.62c-.572.278-1.031.086-1.031-.449a1.883,1.883,0,0,1,1.031-1.476Z" transform="translate(-251.821 -31.664)" fill="#f5f5f5"/>
        <path id="Path_244" data-name="Path 244" d="M261.451,66.787l33.377-16.609c.572-.289,1.031-.086,1.031.449a1.865,1.865,0,0,1-1.031,1.465l-33.377,16.62c-.572.278-1.031.086-1.031-.449a1.883,1.883,0,0,1,1.031-1.476Z" transform="translate(-251.821 -31.259)" fill="#f5f5f5"/>
        <g id="freepik--check--inject-7-5" data-name="freepik--check--inject-7" transform="translate(33.887 26.61)">
          <path id="Path_245" data-name="Path 245" d="M286.461,57.413a.772.772,0,0,0-.944.31l-2.908,5.444-.621-.556a.791.791,0,0,0-1.007,0,.561.561,0,0,0,0,.877l1.317,1.176a.7.7,0,0,0,.485.182.691.691,0,0,0,.149,0,.7.7,0,0,0,.522-.353l3.343-6.256a.594.594,0,0,0-.336-.824Z" transform="translate(-280.77 -57.361)" fill="#455a64"/>
        </g>
        <g id="freepik--check--inject-7-6" data-name="freepik--check--inject-7" transform="translate(40.075 23.76)">
          <path id="Path_246" data-name="Path 246" d="M291.4,54.754a.814.814,0,0,0-.545-.02.678.678,0,0,0-.4.319L287.552,60.5l-.621-.556a.809.809,0,0,0-.96.031.559.559,0,0,0-.071.825l1.4,1.2a.762.762,0,0,0,.485.193h.149a.675.675,0,0,0,.522-.353l3.343-6.256a.541.541,0,0,0,0-.484.682.682,0,0,0-.4-.339Z" transform="translate(-285.75 -54.696)" fill="#455a64"/>
        </g>
      </g>
    </g>
  </g>
</svg>
