<svg xmlns="http://www.w3.org/2000/svg" viewBox="0 0 314.14 288.42"  xmlns:v="https://vecta.io/nano"><path d="M126.5 262.17L0 202.56l126.31-45.7 162.06 76.86-150.16 25.03" fill="#020203" opacity=".15"/><path d="M126.31 55.11l.19 205.88 146.41-41.44L269.31 0l-143 55.11z" fill="#0094da"/><path d="M138.21 61.67l.44 205.48 144.09-38.38-7.31-212.83-137.22 45.73z" fill="#fff"/><path d="M158.78 71.02l-.32 207.55 144.3-43.95 1.17-213-145.15 49.4z" fill="#fbbd00"/><path d="M168.67 75.7l-.96 212.72 146.43-41.17V28.81L168.67 75.7z" fill="#139334"/><path d="M158.78 71.02L288.3 26.94 148.09 65.69V272.6l10.38-2.48.31-199.1z" fill="#e2000f"/><g fill="none" stroke="#fff" stroke-miterlimit="10"><path d="M189.85 107.79l106.5-32.02m-106.49 52.51l106.5-32.01M192.12 146.5l106.5-32.02" stroke-width="7.25"/><path d="M192.11 166.84l106.5-33.04M188.9 187.75l106.5-33.04m-107.54 55.96l106.5-33.04m-105.37 53.96l61.43-19.06" stroke-width="7.36"/></g></svg>