<svg xmlns="http://www.w3.org/2000/svg" viewBox="0 0 64 64"  xmlns:v="https://vecta.io/nano"><circle cx="32" cy="32" r="30" fill="#e8f3ff"/><g fill="#8bc4ff"><path d="M54.85,51.42a30,30,0,0,1-45.7,0,23,23,0,0,1,45.7,0Z"/><path d="M43,23c0,10.5-13.59,15.14-19.9,6.46A10.7,10.7,0,0,1,21,23a11,11,0,0,1,22,0Z"/></g><path d="M32 0C4.57 0-9.84 32.21 7.61 52.7a32 32 0 0 0 48.77 0C74 31.93 59.16 0 32 0zm0 4c21.84 0 35.24 24 23.87 42.58a25 25 0 0 0-13.74-15.45l.4-.5A13 13 0 0 0 32 10c-11.12 0-16.82 13-10.14 21.13A25 25 0 0 0 8.13 46.58C-3.24 28 10.15 4 32 4zM11.25 50.77a20.94 20.94 0 0 1 14-16.66 13 13 0 0 0 13.46 0 20.92 20.92 0 0 1 14 16.66 28 28 0 0 1-41.46 0zM23 23a9 9 0 1 1 9 9 9 9 0 0 1-9-9z" fill="#2e58ff"/></svg>