<?xml version="1.0" encoding="iso-8859-1"?>
<!-- Generator: Adobe Illustrator 19.0.0, SVG Export Plug-In . SVG Version: 6.00 Build 0)  -->
<svg version="1.1" id="Layer_1" xmlns="http://www.w3.org/2000/svg" xmlns:xlink="http://www.w3.org/1999/xlink" x="0px" y="0px"
	 viewBox="0 0 512 512" style="enable-background:new 0 0 512 512;" xml:space="preserve">
<path style="fill:#43D3E8;" d="M187.482,313.479c-69.617,0-126.034-56.428-126.026-126.029c0-69.606,56.425-126.026,126.031-126.026
	c69.596,0,126.026,56.425,126.026,126.026C313.516,257.049,257.068,313.476,187.482,313.479z"/>
<g>
	<path style="fill:#242D3C;" d="M454.956,511.943c-14.618,0.003-29.217-5.558-40.34-16.681l-111.703-111.7l18.301-18.309
		l-25.06-25.057c-74.04,52.833-176.269,44.8-241.239-20.18C19.5,284.607,0,237.526,0,187.445C0,137.371,19.5,90.29,54.915,54.878
		C128-18.22,246.945-18.213,320.051,54.88c64.973,64.978,73.006,167.209,20.173,241.242l25.065,25.062l18.296-18.304
		l111.708,111.706C506.071,425.358,512,439.687,512,454.929c0,15.235-5.934,29.56-16.707,40.335
		C484.17,506.38,469.558,511.943,454.956,511.943z M330.757,383.561l97.779,97.774c14.561,14.561,38.262,14.561,52.833,0
		c7.053-7.058,10.936-16.435,10.936-26.414c0-9.976-3.886-19.359-10.936-26.414l-97.777-97.772l-18.299,18.301l-51.205-51.2
		l5.399-6.868c52.39-66.645,46.643-162.15-13.366-222.167c-65.423-65.416-171.868-65.418-237.284,0
		c-31.693,31.693-49.147,73.828-49.147,118.643c0,44.818,17.454,86.953,49.147,118.646c60.006,60.009,155.507,65.754,222.154,13.366
		l6.871-5.394l37.276,37.266l8.108-8.108l13.924,13.921L330.757,383.561z"/>
	<path style="fill:#242D3C;" d="M454.956,476.528c-3.343,0-9.769-0.824-15.276-6.326l-25.004-25.009l13.926-13.921l25.001,25.006
		c0.133,0.136,0.558,0.558,1.349,0.558c0.783,0,1.208-0.422,1.349-0.563l13.921,13.921
		C464.719,475.701,458.294,476.528,454.956,476.528z"/>
</g>
<path style="fill:#FFFFFF;" d="M106.742,187.452H87.05c0.003-26.788,10.458-51.996,29.445-70.989
	c18.988-18.985,44.196-29.443,70.981-29.443l0,0l0.003,19.692c-21.527,0-41.789,8.407-57.06,23.677
	C115.154,145.66,106.742,165.925,106.742,187.452z"/>
<g>
</g>
<g>
</g>
<g>
</g>
<g>
</g>
<g>
</g>
<g>
</g>
<g>
</g>
<g>
</g>
<g>
</g>
<g>
</g>
<g>
</g>
<g>
</g>
<g>
</g>
<g>
</g>
<g>
</g>
</svg>
