<svg xmlns="http://www.w3.org/2000/svg" width="56" height="56"  xmlns:v="https://vecta.io/nano"><path d="M28 7c8.8 0 15.5 7.4 15.5 16.7v3.7c0 .8.4 1.6 1.6 3 .1.2 0 0 .5.6 2 2.4 3 3.7 3 5.8l-.1 1c-.1.5-.2 1-.5 1.5-1 1.8-3 2.8-6 2.8l-5.6.2C35 46.6 32.2 49 28 49c-4.3 0-7.2-2.4-8.4-7H14c-3.2 0-5.2-1-6-3-.2-.5-.3-1-.4-1.4 0-.3-.1-.6-.1-1 0-2 .8-3.4 3-5.8l.5-.6c1-1.4 1.6-2 1.6-3v-3.7C12.5 14.4 19.2 7 28 7zm5.3 35H22.7c1 2.8 2.6 4 5.3 4s4.3-1.2 5.3-4zM28 10c-7 0-12.5 6-12.5 13.7v3.7c0 1.7-.7 3-2.3 5l-.6.7c-1.6 2-2 2.8-2 3.8 0 .5 0 .8.2 1C11 38.5 12 39 14 39h28c2 0 3-.5 3.3-1.2.2-.3.2-.6.2-1 0-1-.5-2-2-3.8l-.6-.7c-1.6-2-2.3-3.2-2.3-5v-3.7C40.5 16 35 10 28 10z" fill="#0391fd" fill-rule="nonzero"/></svg>