<svg xmlns="http://www.w3.org/2000/svg" viewBox="0 0 64 64"  xmlns:v="https://vecta.io/nano"><path d="M6,8H58a4,4,0,0,1,4,4v8a0,0,0,0,1,0,0H2a0,0,0,0,1,0,0V12A4,4,0,0,1,6,8Z" fill="#8bc4ff"/><path d="M62,50v8a4,4,0,0,1-4,4H6a4,4,0,0,1-4-4V20H62V34" fill="#d1e7ff"/><path d="M49 31v7H27v8h22v7l13-11-13-11z" fill="#a2d0ff"/><path d="M16 14a4 4 0 0 1-4-4V6a4 4 0 0 1 8 0v4a4 4 0 0 1-4 4zm32 0a4 4 0 0 1-4-4V6a4 4 0 0 1 8 0v4a4 4 0 0 1-4 4z" fill="#d1e7ff"/><path d="M58 6h-4a6 6 0 0 0-12 0H22a6 6 0 0 0-12 0H6a6 6 0 0 0-6 6v46a6 6 0 0 0 6 6h52a6 6 0 0 0 6-6v-8a2 2 0 0 0-4 0v8a2 2 0 0 1-2 2H6a2 2 0 0 1-2-2V22h56v12a2 2 0 0 0 4 0V12a6 6 0 0 0-6-6zM48 4a2 2 0 0 1 2 2v4a2 2 0 0 1-4 0V6a2 2 0 0 1 2-2zM16 4a2 2 0 0 1 2 2v4a2 2 0 0 1-4 0V6a2 2 0 0 1 2-2zM4 18v-6a2 2 0 0 1 2-2h4a6 6 0 0 0 12 0h20a6 6 0 0 0 12 0h4a2 2 0 0 1 2 2v6zm46.29 36.53l13-11a2 2 0 0 0 0-3.06l-13-11A2 2 0 0 0 47 31v5H27a2 2 0 0 0-2 2v8a2 2 0 0 0 2 2h20v5a2 2 0 0 0 3.29 1.53zM29 44v-4h20a2 2 0 0 0 2-2v-2.69L58.9 42 51 48.69V46a2 2 0 0 0-2-2z" fill="#2e58ff"/></svg>